<svg width="50" height="51" viewBox="0 0 50 51" fill="none" xmlns="http://www.w3.org/2000/svg">
<path d="M0.953059 0.806845C2.16431 -0.323657 4.06268 -0.258196 5.19318 0.953056L24.2827 21.4061C24.6278 21.7759 24.9176 22.1784 25.152 22.6031C25.1854 22.5657 25.2194 22.5285 25.2543 22.4917L44.6727 1.94595C45.6822 0.877889 47.5526 0.685481 48.8505 1.5162C50.1484 2.34692 50.3822 3.88618 49.3727 4.95425L29.9543 25.5L49.3727 46.0457C50.3822 47.1138 50.1484 48.6531 48.8505 49.4838C47.5526 50.3145 45.6822 50.1221 44.6727 49.054L25.2543 28.5083C25.2194 28.4715 25.1854 28.4343 25.152 28.3969C24.9176 28.8216 24.6278 29.2241 24.2827 29.5939L5.19318 50.047C4.06267 51.2582 2.16431 51.3237 0.953056 50.1932C-0.258196 49.0627 -0.323656 47.1643 0.806846 45.9531L19.8964 25.5L0.806848 5.04697C-0.323654 3.83571 -0.258193 1.93735 0.953059 0.806845Z" fill="#244441"/>
</svg>
