<svg width="30" height="34" viewBox="0 0 30 34" fill="none" xmlns="http://www.w3.org/2000/svg">
<path d="M23.6787 8.95231C23.6787 13.7388 19.7931 17.619 15.0001 17.619C10.2071 17.619 6.32155 13.7388 6.32155 8.95231C6.32155 4.16584 10.2071 0.285645 15.0001 0.285645C19.7931 0.285645 23.6787 4.16584 23.6787 8.95231Z" fill="#244441"/>
<path d="M29.8775 26.2857C29.8775 31.0721 32.3572 33.7142 15 33.7142C-2.35712 33.7142 0.12238 31.0721 0.122502 26.2857C0.122625 21.4992 3.96866 19.5347 9.42095 18.249C11.1438 17.8427 10.6607 19.4761 15 19.4761C19.3393 19.4761 18.8562 17.8427 20.5791 18.249C26.0314 19.5347 29.8775 20.7142 29.8775 26.2857Z" fill="#244441"/>
</svg>
