<svg width="48" height="45" viewBox="0 0 48 45" fill="none" xmlns="http://www.w3.org/2000/svg">
<path d="M10.3946 40.8943C10.9197 39.9762 11.349 39.0989 11.8933 38.2983C14.2457 34.8466 16.507 31.3205 19.0345 27.9982C24.641 20.6273 30.6623 13.5967 37.3047 7.12712C39.3118 5.17113 41.5156 3.4141 43.657 1.59954C44.115 1.21122 44.6617 0.901996 45.2133 0.657498C45.9422 0.333897 46.6832 0.530454 47.1244 1.05061C47.5873 1.59714 47.6424 2.37618 47.1772 3.05454C46.887 3.48122 46.5321 3.89111 46.1269 4.20512C37.0913 11.2069 29.9357 19.9945 22.8161 28.8036C20.2191 32.0156 17.8643 35.4266 15.4615 38.7921C14.5023 40.1344 13.7182 41.6014 12.8525 43.0109C11.7614 44.7871 10.2603 45.0076 8.84788 43.4927C8.02297 42.6082 7.25562 41.6278 6.65852 40.5779C5.01111 37.6871 3.46441 34.7363 1.88174 31.8095C1.44771 31.0065 0.9825 30.2155 0.613211 29.3837C0.478924 29.0817 0.442955 28.5208 0.622803 28.3506C0.819438 28.1636 1.43092 28.1372 1.65873 28.3074C2.22226 28.7293 2.75461 29.2495 3.14548 29.8319C4.26054 31.4955 5.28688 33.2166 6.36836 34.8993C7.5098 36.6755 8.67043 38.4373 9.82865 40.2016C9.97972 40.4317 10.1788 40.6306 10.3946 40.8919V40.8943Z" fill="#244441"/>
</svg>
