<svg width="25" height="24" viewBox="0 0 25 24" fill="none" xmlns="http://www.w3.org/2000/svg">
<path d="M12.9224 8.07243C12.9793 8.36348 12.9545 8.67931 13.2595 8.96846C13.3262 9.0653 13.3397 9.1676 13.299 9.26713C13.2052 9.56014 13.1822 9.85662 13.2304 10.1517C13.2252 10.1963 13.2306 10.241 13.2464 10.2852C13.5384 10.6893 13.3763 11.1113 13.5033 11.5174C13.588 11.8052 13.5661 12.0995 13.8113 12.3816C13.9573 12.5373 13.9573 12.7305 13.9967 12.9078C14.1003 13.4416 14.201 13.976 14.3134 14.5098C14.3485 14.6763 14.3485 14.8218 13.9514 14.8676C13.7252 14.8937 13.6011 15.0411 13.3106 15.0665C12.5487 15.1301 11.9079 14.9394 11.6743 14.5187C11.5721 14.3281 11.5284 14.1317 11.4598 13.9385C11.3225 13.5693 11.0452 13.209 11.1678 12.822C11.2116 12.6841 11.1138 12.5233 11.054 12.3772C10.8773 11.9571 10.8875 11.5352 10.8744 11.1138C10.8893 10.979 10.8747 10.8439 10.8306 10.7103C10.6743 10.3709 10.5734 10.0271 10.5284 9.68146C10.4918 9.51781 10.4786 9.35333 10.489 9.18896C10.5168 9.01484 10.4117 8.83119 10.3694 8.65135C10.2643 8.17538 10.0891 7.69813 10.1489 7.21962C9.857 6.66548 10.0862 6.07576 9.72414 5.52098C9.59979 5.3318 9.58179 5.13237 9.67161 4.93952C9.89933 4.46672 10.0468 4.41715 10.8715 4.59445C11.0735 4.63877 11.2638 4.69246 11.4393 4.75459C11.6933 4.84292 11.8305 4.94969 11.8656 5.14732C11.9196 5.42248 12.1137 5.69192 12.2918 5.95565C12.4377 6.16726 12.5968 6.36808 12.5618 6.60257C12.5649 6.69135 12.5969 6.7795 12.6567 6.86439C12.7604 7.05962 12.8369 7.2574 12.8859 7.45665C12.9311 7.66128 12.9433 7.86705 12.9224 8.07243Z" fill="#9B582E"/>
<path d="M14.0876 17.2153C14.111 17.2547 14.0453 17.3011 14.311 17.3341C14.3811 17.3424 14.3489 17.3596 14.311 17.3735C14.1927 17.4161 14.0993 17.4612 14.1183 17.5006C14.1183 17.5064 14.092 17.5153 14.1183 17.5197C14.346 17.5623 14.1183 17.6341 14.1796 17.6887C14.2175 17.7256 14.1446 17.7752 14.3358 17.7955C14.4438 17.8063 14.4204 17.8349 14.4219 17.859V18.0891C14.4219 18.1132 14.3956 18.1393 14.0205 18.2098C13.8073 18.2492 13.6672 18.2975 13.3957 18.3484C12.6834 18.4831 12.1184 18.539 11.9564 18.471C11.8878 18.4418 11.8776 18.4011 11.8338 18.3662C11.755 18.3026 11.5418 18.2486 11.7068 18.1495C11.7666 18.1145 11.6966 18.0897 11.6572 18.063C11.5433 17.988 11.6075 17.8953 11.6572 17.8088C11.6718 17.7809 11.7112 17.751 11.6674 17.7288C11.5635 17.6734 11.5049 17.6045 11.501 17.5331C11.485 17.5002 11.4931 17.4659 11.5243 17.4352C11.5725 17.3996 11.4907 17.3659 11.4718 17.3303C11.4236 17.2376 11.3039 17.1397 11.4192 17.0469C11.3757 17.0228 11.3449 16.9948 11.329 16.9649C11.3131 16.9351 11.3125 16.9041 11.3273 16.8741C11.3387 16.841 11.3313 16.8072 11.3059 16.7756C11.2805 16.7441 11.2377 16.7157 11.1813 16.693C11.0879 16.6523 11.0718 16.6065 11.19 16.5728C11.4645 16.4928 11.6119 16.5004 12.406 16.5964C12.5958 16.6192 12.7797 16.6434 12.9505 16.6669C13.1928 16.6999 13.3198 16.726 13.3373 16.7584C13.3651 16.8035 13.5359 16.8556 13.6877 16.9014C13.8088 16.9389 13.9519 16.9719 13.892 17.0037C13.8716 17.0151 13.9241 17.0298 13.9606 17.0425C14.1212 17.1047 14.1825 17.1569 14.0876 17.2153Z" fill="#9B582E"/>
<path d="M3.39952 19.7102C4.01726 20.4301 4.8015 21.0137 5.695 21.4185C6.62009 21.8407 7.63008 22.0814 8.66116 22.1254L9.64222 22.1852C10.0035 22.2018 10.3798 22.2146 10.7111 22.2137C11.7228 22.2137 12.7299 22.088 13.7052 21.84C14.7161 21.5845 15.6884 21.2134 16.5995 20.7355C16.7343 20.66 16.878 20.5855 17.0177 20.5118L17.2173 20.4023C17.2832 20.3646 17.343 20.3222 17.4009 20.2836L17.8411 19.9817C17.9848 19.8777 18.1235 19.7691 18.2662 19.6641L18.4798 19.5067L18.6794 19.3401L19.0886 19.0088C19.3451 18.7722 19.6196 18.5486 19.8601 18.3019L20.0467 18.1178C20.1086 18.058 20.1725 17.9981 20.2284 17.9337L20.5787 17.5517C21.0374 17.0385 21.4452 16.4883 21.7973 15.9078L21.932 15.6916C21.9739 15.6179 22.0109 15.5424 22.0498 15.4679L22.2823 15.0196L22.4819 14.5594C22.5139 14.4821 22.5508 14.4066 22.5817 14.3275L22.6586 14.0918C22.9614 13.2018 23.134 12.2784 23.1716 11.3462C23.2111 10.4088 23.0844 9.47173 22.7963 8.57202C22.4759 7.58531 22.0059 6.43477 21.3392 5.49777C20.8447 4.79394 20.2392 4.16203 19.5427 3.62286C18.8438 3.08637 18.0586 2.65349 17.2153 2.33977C16.3645 2.02058 15.4685 1.81569 14.5545 1.73137C13.6423 1.64656 12.7214 1.68688 11.8219 1.85102C11.266 1.95595 10.764 2.1023 10.3738 2.20723C10.274 2.23484 10.1862 2.25785 10.1013 2.27534C10.0165 2.29283 9.94363 2.31216 9.87477 2.32044C9.77262 2.34287 9.66523 2.33248 9.57036 2.29099C9.4995 2.24589 9.23203 2.30112 8.97154 2.37567C8.83781 2.40881 8.71006 2.44931 8.60227 2.46772C8.49449 2.48612 8.40865 2.49349 8.36973 2.46219C8.26992 2.37935 8.25894 2.24497 8.35875 2.05444C8.38877 2.00177 8.42209 1.95075 8.45855 1.90165C8.49847 1.8501 8.54538 1.79488 8.59928 1.73689C8.65317 1.67891 8.71305 1.61724 8.78291 1.55281C8.85277 1.48838 8.92963 1.42855 9.01446 1.3632C9.44679 1.04392 9.92637 0.783255 10.4387 0.589112C11.1499 0.314455 11.9006 0.136191 12.6673 0.0598635C14.2222 -0.107655 15.835 0.0847165 17.3331 0.532967C18.0507 0.748549 18.7447 1.0259 19.406 1.36135C20.0704 1.70546 20.6918 2.11565 21.2593 2.58461C22.3826 3.54036 23.2618 4.71425 23.8333 6.0215C23.9241 6.25621 24.0249 6.50104 24.1327 6.75232C24.2405 7.0036 24.3203 7.27144 24.4171 7.53837C24.5139 7.80529 24.5778 8.08326 24.6596 8.35663C24.7235 8.63276 24.7814 8.90889 24.8393 9.17674C24.8662 9.37003 24.8942 9.56332 24.9211 9.75569C24.9321 9.85233 24.9491 9.94898 24.9571 10.0456L24.974 10.3374C24.983 10.5316 25.001 10.7249 25 10.9191L24.987 11.5008C24.9527 12.2756 24.8309 13.0449 24.6237 13.7964L24.5488 14.078C24.5229 14.1701 24.486 14.2621 24.455 14.3542L24.2554 14.9064L24.0209 15.4412C23.98 15.5332 23.944 15.6198 23.9001 15.7072L23.7634 15.9658C23.4052 16.6554 22.9796 17.3135 22.4919 17.9319C22.3312 18.1252 22.1755 18.3249 22.0069 18.5145C21.8382 18.7041 21.6595 18.8882 21.4869 19.0741L20.943 19.6052C20.7613 19.7783 20.5717 19.9412 20.393 20.1087C19.4263 20.9782 18.335 21.7215 17.1494 22.3177L16.7033 22.5396C16.5526 22.6114 16.3979 22.6739 16.2452 22.7411C16.0925 22.8083 15.9398 22.8755 15.7831 22.9353L15.3111 23.1093C14.9987 23.2326 14.6713 23.321 14.3499 23.4223C14.0286 23.5235 13.6913 23.6008 13.3579 23.6754C12.0936 23.9547 10.7905 24.0547 9.49351 23.9718C8.78943 23.9251 8.08935 23.8366 7.39764 23.7067C6.68003 23.5728 5.97983 23.3692 5.30876 23.0992C4.40937 22.738 3.57926 22.2451 2.85061 21.6394C2.11577 21.0234 1.50723 20.2904 1.05414 19.4754C0.609183 18.6701 0.302457 17.806 0.144932 16.9139C-0.0116509 16.0359 -0.041514 15.1427 0.0561112 14.2575C0.112724 13.2276 0.314012 12.2087 0.654931 11.2265C0.99482 10.2513 1.41936 9.30299 1.92443 8.39069C2.42344 7.48498 2.94542 6.61334 3.52827 5.74813C4.11134 4.87263 4.76949 4.04159 5.49639 3.26297C5.99819 2.72883 6.56783 2.25231 7.19305 1.84366C7.87974 1.39559 8.63577 1.04557 9.43563 0.805416C9.8587 0.677437 10.2927 0.582602 10.7331 0.521922C10.9267 0.490627 11.1113 0.480503 11.28 0.464856C11.4487 0.449208 11.6093 0.452892 11.7551 0.44921C11.9983 0.449704 12.2411 0.466622 12.4816 0.499832C12.6312 0.517292 12.7782 0.550332 12.9198 0.598319C13.1194 0.669192 13.1413 0.736384 13.0196 0.810939C12.8978 0.885493 12.6413 0.960048 12.29 1.08707C11.9547 1.21133 11.5355 1.35123 11.0994 1.53716C10.792 1.6743 10.4606 1.80684 10.0474 1.98357C9.52893 2.20326 9.02564 2.45225 8.5404 2.72911C7.70908 3.21907 6.97069 3.83165 6.3547 4.54237C5.74397 5.24622 5.2038 5.99977 4.74088 6.79374C4.36562 7.4224 4.02828 8.06302 3.69194 8.7156C3.3556 9.36819 3.03025 10.0364 2.70289 10.7562C2.46698 11.2921 2.28426 11.8466 2.15697 12.413C2.00491 13.0377 1.90481 13.6722 1.85756 14.3109C1.81708 14.9438 1.84013 15.5789 1.92643 16.2079C2.11505 17.4615 2.56916 18.6903 3.39952 19.7102Z" fill="#9B582E"/>
</svg>
