<svg width="16" height="29" viewBox="0 0 16 29" fill="none" xmlns="http://www.w3.org/2000/svg">
<path d="M9.93144 16.0759V27.8259H5.45208V16.0759V15.5759H4.95208H1V11.5086H4.95208H5.45208V11.0086V7.14655C5.45208 5.04958 6.07479 3.48341 7.11539 2.44207C8.15652 1.40021 9.67365 0.825928 11.5752 0.825928C12.5078 0.825928 13.4681 0.90935 14.1997 0.993801C14.5191 1.03068 14.7932 1.06755 15 1.09727V4.48257H13.289C12.0914 4.48257 11.2239 4.85854 10.6652 5.50442C10.1183 6.13678 9.93144 6.95434 9.93144 7.72022V11.0086V11.5086H10.4314H14.7123L14.0879 15.5759H10.4314H9.93144V16.0759Z" fill="#F5F2E8" stroke="#E3E3EC"/>
</svg>
