<svg width="109" height="134" viewBox="0 0 109 134" fill="none" xmlns="http://www.w3.org/2000/svg">
<path d="M6.41025 98.9223C8.36081 98.4548 10.3213 98.2111 12.0977 97.5198C22.1093 93.6058 32.2801 90.0698 41.8438 85.0964C43.9486 84.0023 43.9536 83.9923 43.2172 81.7046C39.9132 71.3799 37.7536 60.8215 37.0918 49.9945C36.2857 36.7654 38.5199 24.148 45.2673 12.57C46.8048 9.93417 48.621 7.39777 50.6562 5.12992C52.1589 3.4539 54.0995 2.05141 56.08 0.94733C59.4238 -0.917676 62.5387 0.0322337 64.6286 3.25496C66.4597 6.07983 67.3455 9.28266 67.7037 12.5651C68.1416 16.5985 68.2809 20.6617 68.5148 24.715C68.5745 25.7445 68.5248 26.7789 68.5248 28.2013C68.9975 27.5597 69.2761 27.1917 69.5448 26.8137C74.1674 20.3384 79.5614 14.5843 85.7912 9.6308C89.5431 6.65176 93.7328 4.65248 98.5694 4.16011C102.043 3.80701 104.645 5.18462 106.481 8.06419C109.228 12.3661 109.372 17.056 108.586 21.9199C106.999 31.7324 102.391 40.1423 96.5989 48.0052C90.1302 56.7831 82.1986 64.1089 73.4808 70.5494C66.1064 75.9952 58.4684 81.0829 50.9299 86.3C50.3328 86.7127 50.0292 86.9913 50.3377 87.787C55.6122 101.603 61.8819 114.882 71.2914 126.45C72.6846 128.166 74.2172 129.772 75.7597 131.359C76.2374 131.851 76.954 132.104 77.566 132.463C77.8447 132.627 78.1333 132.781 78.4169 132.935C78.188 133.288 77.974 133.94 77.7302 133.95C76.7798 133.984 75.6105 134.134 74.9039 133.666C72.804 132.279 70.7191 130.792 68.9278 129.041C62.3198 122.586 57.4633 114.857 53.4328 106.626C50.8552 101.359 48.6559 95.9085 46.2824 90.5422C46.1231 90.1792 45.9689 89.8111 45.7698 89.3486C34.778 94.9984 23.3234 99.3749 11.7245 103.756C12.1624 103.975 12.5854 104.189 13.0133 104.398C16.6806 106.154 20.3578 107.889 24.0051 109.685C24.9456 110.147 26.2194 110.659 25.6223 112.057C25.0451 113.41 23.7115 113.181 22.6616 112.783C17.8997 110.958 13.1526 109.098 8.4454 107.133C6.24107 106.213 4.08152 105.144 2.01153 103.96C-0.521216 102.513 -0.411745 101.434 0.96161 98.9372C2.534 96.0776 3.61876 92.9344 4.75327 89.8559C5.52951 87.7422 5.90768 85.4794 6.69885 83.3756C7.36065 81.6151 8.2812 79.9341 9.25648 78.3227C9.72422 77.5469 10.4905 76.8257 11.2966 76.4179C11.9286 76.0946 13.0133 75.9952 13.5507 76.3433C14.0732 76.6815 14.2871 77.6861 14.3916 78.4321C14.4713 78.9692 14.2125 79.5859 14.0085 80.128C12.4958 84.1863 11.008 88.2595 9.41074 92.2829C8.53995 94.4811 7.47012 96.6047 6.41025 98.9223V98.9223ZM48.1284 81.5355C48.8251 81.1227 49.3426 80.8641 49.8103 80.5358C57.3239 75.3586 64.9471 70.3256 72.3164 64.9543C79.7902 59.5085 86.5724 53.2471 92.2798 45.9263C98.1415 38.4116 102.988 30.3796 104.506 20.7363C105.038 17.3395 105.267 13.9875 103.749 10.7747C102.401 7.91997 100.575 7.05958 97.4846 7.63151C93.9269 8.28799 90.792 9.82476 88.0304 12.1026C79.5763 19.0702 72.9583 27.51 68.0421 37.2876C67.7037 37.954 67.5644 38.7398 67.4251 39.4858C66.9723 41.9277 66.6339 44.3895 66.1114 46.8116C65.8477 48.035 64.8923 48.7512 63.5936 48.6169C62.3098 48.4876 61.5186 47.6371 61.454 46.3689C61.3942 45.1206 61.4092 43.8276 61.6629 42.6091C62.0113 40.938 62.7825 39.3515 63.0711 37.6755C64.33 30.3547 65.166 22.9842 64.3997 15.559C64.1061 12.7043 63.5687 9.82476 62.6979 7.09439C61.3445 2.86207 59.1601 2.21056 55.7963 5.06526C53.8308 6.73631 52.0644 8.77538 50.6761 10.9537C44.705 20.3285 41.9533 30.7079 41.6299 41.7636C41.3164 52.3767 43.058 62.7362 45.6653 72.9714C46.3868 75.8012 47.2726 78.5863 48.1234 81.5454L48.1284 81.5355Z" fill="#9B582E"/>
</svg>
