<svg width="90" height="95" viewBox="0 0 90 95" fill="none" xmlns="http://www.w3.org/2000/svg">
<path d="M75.8495 87.1912C75.4406 86.9962 75.0316 86.8057 74.6179 86.6104C64.1333 81.6568 53.5479 76.8572 43.6753 70.862C29.3174 62.1394 17.769 50.8635 9.6156 36.7517C4.26369 27.4803 1.57725 17.4236 0.57358 6.99308C0.414098 5.33627 0.740327 3.62366 0.995559 1.96185C1.08616 1.36572 1.55793 0.753682 2.03038 0.310145C2.28691 0.0735332 2.94544 0.0680039 3.35891 0.17677C3.62799 0.250444 3.96745 0.737686 3.94306 1.00956C3.3811 6.73898 5.22122 12.1378 6.65414 17.5831C10.831 33.466 20.5637 46.1376 33.1193 57.1809C38.7056 62.0984 44.8247 66.3571 51.5337 69.8007C60.1169 74.2057 68.8288 78.3946 77.4875 82.6671C77.8628 82.8512 78.2704 82.9778 79.02 83.2732C78.4502 82.4457 78.0743 81.911 77.7137 81.3634C76.014 78.7905 74.2594 76.2419 72.6598 73.6197C72.1804 72.8335 71.9133 71.8175 71.9279 70.9122C71.9552 69.138 73.5907 68.2835 75.2778 69.0983C76.0047 69.4516 76.6882 69.9801 77.2272 70.5646C82.0996 75.7897 85.958 81.6478 89.2037 87.8372C91.1933 91.6369 89.0595 94.955 84.5628 94.7039C76.7559 94.2654 68.9729 93.382 61.1883 92.617C60.2087 92.5187 59.2326 92.0837 58.3291 91.6572C56.8834 90.9783 56.2899 89.7762 56.5932 88.4904C56.8777 87.2809 57.9035 86.4301 59.5388 86.4862C64.0845 86.6398 68.6283 86.9209 73.1738 87.1701C74.0343 87.2164 74.8899 87.3535 75.7529 87.4455L75.8497 87.1866L75.8495 87.1912Z" fill="#F5F2E8"/>
</svg>
