<svg width="27" height="27" viewBox="0 0 27 27" fill="none" xmlns="http://www.w3.org/2000/svg">
<mask id="path-1-outside-1_947_2873" maskUnits="userSpaceOnUse" x="0.5" y="0.325928" width="26" height="26" fill="black">
<rect fill="white" x="0.5" y="0.325928" width="26" height="26"/>
<path fill-rule="evenodd" clip-rule="evenodd" d="M1.5 4.32593C1.5 2.66907 2.84315 1.32593 4.5 1.32593H22.5C24.1569 1.32593 25.5 2.66907 25.5 4.32593V22.3259C25.5 23.9828 24.1569 25.3259 22.5 25.3259H4.5C2.84315 25.3259 1.5 23.9828 1.5 22.3259V4.32593ZM13.7854 16.7542C15.5212 16.7542 16.9283 15.3471 16.9283 13.6114C16.9283 11.8756 15.5212 10.4685 13.7854 10.4685C12.0497 10.4685 10.6426 11.8756 10.6426 13.6114C10.6426 15.3471 12.0497 16.7542 13.7854 16.7542ZM13.7854 20.7542C17.7303 20.7542 20.9283 17.5563 20.9283 13.6114C20.9283 9.66647 17.7303 6.46851 13.7854 6.46851C9.84054 6.46851 6.64258 9.66647 6.64258 13.6114C6.64258 17.5563 9.84054 20.7542 13.7854 20.7542ZM21 8.34253C22.6569 8.34253 24 6.99938 24 5.34253C24 3.68568 22.6569 2.34253 21 2.34253C19.3431 2.34253 18 3.68568 18 5.34253C18 6.99938 19.3431 8.34253 21 8.34253Z"/>
</mask>
<path fill-rule="evenodd" clip-rule="evenodd" d="M1.5 4.32593C1.5 2.66907 2.84315 1.32593 4.5 1.32593H22.5C24.1569 1.32593 25.5 2.66907 25.5 4.32593V22.3259C25.5 23.9828 24.1569 25.3259 22.5 25.3259H4.5C2.84315 25.3259 1.5 23.9828 1.5 22.3259V4.32593ZM13.7854 16.7542C15.5212 16.7542 16.9283 15.3471 16.9283 13.6114C16.9283 11.8756 15.5212 10.4685 13.7854 10.4685C12.0497 10.4685 10.6426 11.8756 10.6426 13.6114C10.6426 15.3471 12.0497 16.7542 13.7854 16.7542ZM13.7854 20.7542C17.7303 20.7542 20.9283 17.5563 20.9283 13.6114C20.9283 9.66647 17.7303 6.46851 13.7854 6.46851C9.84054 6.46851 6.64258 9.66647 6.64258 13.6114C6.64258 17.5563 9.84054 20.7542 13.7854 20.7542ZM21 8.34253C22.6569 8.34253 24 6.99938 24 5.34253C24 3.68568 22.6569 2.34253 21 2.34253C19.3431 2.34253 18 3.68568 18 5.34253C18 6.99938 19.3431 8.34253 21 8.34253Z" fill="#F5F2E8"/>
<path d="M4.5 0.425928C2.34609 0.425928 0.6 2.17202 0.6 4.32593H2.4C2.4 3.16613 3.3402 2.22593 4.5 2.22593V0.425928ZM22.5 0.425928H4.5V2.22593H22.5V0.425928ZM26.4 4.32593C26.4 2.17202 24.6539 0.425928 22.5 0.425928V2.22593C23.6598 2.22593 24.6 3.16613 24.6 4.32593H26.4ZM26.4 22.3259V4.32593H24.6V22.3259H26.4ZM22.5 26.2259C24.6539 26.2259 26.4 24.4798 26.4 22.3259H24.6C24.6 23.4857 23.6598 24.4259 22.5 24.4259V26.2259ZM4.5 26.2259H22.5V24.4259H4.5V26.2259ZM0.6 22.3259C0.6 24.4798 2.34609 26.2259 4.5 26.2259V24.4259C3.3402 24.4259 2.4 23.4857 2.4 22.3259H0.6ZM0.6 4.32593V22.3259H2.4V4.32593H0.6ZM16.0283 13.6114C16.0283 14.8501 15.0241 15.8542 13.7854 15.8542V17.6542C16.0182 17.6542 17.8283 15.8442 17.8283 13.6114H16.0283ZM13.7854 11.3685C15.0241 11.3685 16.0283 12.3727 16.0283 13.6114H17.8283C17.8283 11.3786 16.0182 9.56851 13.7854 9.56851V11.3685ZM11.5426 13.6114C11.5426 12.3727 12.5467 11.3685 13.7854 11.3685V9.56851C11.5526 9.56851 9.74258 11.3786 9.74258 13.6114H11.5426ZM13.7854 15.8542C12.5467 15.8542 11.5426 14.8501 11.5426 13.6114H9.74258C9.74258 15.8442 11.5526 17.6542 13.7854 17.6542V15.8542ZM20.0283 13.6114C20.0283 17.0592 17.2333 19.8542 13.7854 19.8542V21.6542C18.2274 21.6542 21.8283 18.0533 21.8283 13.6114H20.0283ZM13.7854 7.36851C17.2333 7.36851 20.0283 10.1635 20.0283 13.6114H21.8283C21.8283 9.16942 18.2274 5.56851 13.7854 5.56851V7.36851ZM7.54258 13.6114C7.54258 10.1635 10.3376 7.36851 13.7854 7.36851V5.56851C9.34349 5.56851 5.74258 9.16942 5.74258 13.6114H7.54258ZM13.7854 19.8542C10.3376 19.8542 7.54258 17.0592 7.54258 13.6114H5.74258C5.74258 18.0533 9.34349 21.6542 13.7854 21.6542V19.8542ZM23.1 5.34253C23.1 6.50233 22.1598 7.44253 21 7.44253V9.24253C23.1539 9.24253 24.9 7.49644 24.9 5.34253H23.1ZM21 3.24253C22.1598 3.24253 23.1 4.18273 23.1 5.34253H24.9C24.9 3.18862 23.1539 1.44253 21 1.44253V3.24253ZM18.9 5.34253C18.9 4.18273 19.8402 3.24253 21 3.24253V1.44253C18.8461 1.44253 17.1 3.18862 17.1 5.34253H18.9ZM21 7.44253C19.8402 7.44253 18.9 6.50233 18.9 5.34253H17.1C17.1 7.49644 18.8461 9.24253 21 9.24253V7.44253Z" fill="#F5F2E8" mask="url(#path-1-outside-1_947_2873)"/>
</svg>
