<svg width="35" height="30" viewBox="0 0 35 30" fill="none" xmlns="http://www.w3.org/2000/svg">
<path fill-rule="evenodd" clip-rule="evenodd" d="M1.75003 3.91823C1.78108 5.112 1.77057 7.36035 1.76021 9.57592C1.75509 10.6718 1.75 11.7597 1.75 12.7079C1.75 14.0932 2.165 14.6314 2.61291 14.9006C3.15774 15.2281 3.96618 15.3031 5.05062 15.3031C5.46483 15.3031 5.80062 15.6389 5.80062 16.0531V17.8811C5.98642 17.7294 6.17493 17.5361 6.36145 17.3136C6.76936 16.8269 7.10085 16.2855 7.34655 15.8842C7.39736 15.8012 7.4445 15.7242 7.48789 15.655C7.62502 15.436 7.86517 15.3031 8.12351 15.3031H11.1218C11.1226 13.8191 11.1411 12.4561 11.1928 11.6312C11.2148 11.2806 11.2539 10.9344 11.3208 10.6007H8.95848L7.68464 13.3062C7.5082 13.6809 7.06137 13.8417 6.68661 13.6653C6.31186 13.4888 6.1511 13.042 6.32754 12.6672L7.80008 9.53966L10.1609 4.18209C10.2801 3.91161 10.547 3.73636 10.8426 3.73453C11.1381 3.7327 11.4072 3.90463 11.5297 4.17361L13.2733 8.00143C13.8671 7.74719 14.5792 7.63047 15.4077 7.63046L19.866 7.63046C19.8693 6.1288 19.8546 4.74651 19.8062 3.97387C19.7534 3.13062 19.5846 2.61389 19.2984 2.29857C19.0338 2.00713 18.539 1.75 17.4818 1.75H4.17764C2.69093 1.75 1.75591 2.99412 1.75003 3.91823ZM21.366 7.63046C21.3693 6.12636 21.3548 4.7026 21.3033 3.8801C21.2443 2.93929 21.0464 1.99252 20.409 1.29037C19.75 0.564339 18.7642 0.250003 17.4818 0.25H4.17764C1.82795 0.25 0.25 2.20375 0.25 3.92699L0.250261 3.94676C0.281057 5.11454 0.270702 7.32213 0.26036 9.52712C0.255178 10.6317 0.25 11.7357 0.25 12.7079C0.25 14.4239 0.795271 15.5582 1.84016 16.1863C2.56817 16.6239 3.45478 16.7531 4.30062 16.7895V18.9801C4.30062 19.3943 4.63641 19.7301 5.05062 19.7301C5.59904 19.7301 6.08257 19.516 6.47714 19.2469C6.87189 18.9776 7.21889 18.6257 7.51106 18.2771C7.93759 17.7682 8.29809 17.2016 8.54321 16.8031H11.1263C11.1374 18.6075 11.1666 20.4188 11.1914 21.5788C11.1913 21.6233 11.1908 21.6727 11.1902 21.7265C11.1842 22.2857 11.1731 23.32 11.6362 24.2243C11.9052 24.7495 12.3293 25.231 12.9714 25.573C13.6041 25.9101 14.4069 26.0898 15.4077 26.0898H25.5449C25.8212 26.5398 26.2355 27.1966 26.7291 27.7848C27.0556 28.1739 27.4406 28.5633 27.876 28.8599C28.3112 29.1563 28.8378 29.3875 29.4307 29.3875C29.8449 29.3875 30.1807 29.0517 30.1807 28.6375V26.0782C31.1564 26.0428 32.1747 25.9056 33.0024 25.4087C34.143 24.724 34.75 23.4838 34.75 21.5711C34.75 20.4772 34.7442 19.2344 34.7383 17.9905C34.7267 15.5051 34.715 13.015 34.7497 11.6979L34.75 11.6781C34.75 9.7863 33.0102 7.63046 30.4155 7.63046L21.366 7.63046ZM12.046 8.92553L10.8586 6.31871L9.6327 9.10066H11.9169C11.9578 9.04096 12.0008 8.98255 12.046 8.92553ZM15.4077 9.13046C14.3465 9.13047 13.7641 9.35859 13.4242 9.6474C13.2595 9.78735 13.1272 9.96137 13.0208 10.1795C12.8371 10.5559 12.7315 11.0611 12.6899 11.7251C12.6331 12.631 12.6173 14.2786 12.6228 16.0507C12.6291 18.0815 12.6632 20.2419 12.6912 21.5551L12.6914 21.5711C12.6914 21.621 12.6912 21.6715 12.691 21.7224C12.6889 22.3207 12.6865 22.9845 12.9713 23.5405C13.112 23.8151 13.326 24.0624 13.6766 24.2491C14.0365 24.4408 14.5808 24.5898 15.4077 24.5898H25.9644C26.2225 24.5898 26.4626 24.7226 26.5997 24.9414C26.648 25.0183 26.7007 25.1042 26.7576 25.1971C27.0346 25.6491 27.413 26.2663 27.8781 26.8206C28.1425 27.1357 28.4134 27.4029 28.6807 27.5925V25.3398C28.6807 24.9256 29.0165 24.5898 29.4307 24.5898C30.6515 24.5898 31.5899 24.5072 32.2304 24.1227C32.7738 23.7964 33.25 23.1523 33.25 21.5711C33.25 20.5013 33.2443 19.2746 33.2385 18.0394C33.2268 15.5434 33.2149 13.0124 33.25 11.6693C33.2441 10.5785 32.149 9.13046 30.4155 9.13046H15.4077ZM22.9011 11.3992C23.3153 11.3992 23.6511 11.735 23.6511 12.1492V13.8332H27.1552C27.5695 13.8332 27.9052 14.169 27.9052 14.5832C27.9052 14.9974 27.5695 15.3332 27.1552 15.3332H26.6795C26.5271 16.9776 25.863 18.7394 24.4619 20.0337C25.1934 20.2751 26.0825 20.4285 27.1552 20.4285C27.5695 20.4285 27.9052 20.7643 27.9052 21.1785C27.9052 21.5927 27.5695 21.9285 27.1552 21.9285C25.4504 21.9285 24.0793 21.5861 23.0003 21.054C21.9235 21.6093 20.6092 21.9285 19.0408 21.9285C18.6266 21.9285 18.2908 21.5927 18.2908 21.1785C18.2908 20.7643 18.6266 20.4285 19.0408 20.4285C20.001 20.4285 20.8182 20.2914 21.5112 20.0584C20.5878 19.2359 20.0747 18.2826 19.8874 17.5073C19.7901 17.1047 20.0377 16.6995 20.4403 16.6022C20.843 16.5049 21.2482 16.7525 21.3455 17.1551C21.4821 17.7209 21.9592 18.6031 22.9821 19.3095C24.3287 18.332 25.005 16.8221 25.1723 15.3332H18.6469C18.2327 15.3332 17.8969 14.9974 17.8969 14.5832C17.8969 14.169 18.2327 13.8332 18.6469 13.8332H22.1511V12.1492C22.1511 11.735 22.4869 11.3992 22.9011 11.3992Z" fill="#F5F2E8"/>
</svg>
