<svg width="437" height="7" viewBox="0 0 437 7" fill="none" xmlns="http://www.w3.org/2000/svg">
<path d="M231.339 6.12448C192.045 5.88386 152.751 5.64972 113.457 5.40586C94.6233 5.28794 75.7825 5.19925 56.9546 5.00999C40.7868 4.84444 24.6178 4.6044 8.73108 3.19128C6.83892 3.02152 4.96036 2.80624 3.10299 2.57771C2.36719 2.48686 1.55966 2.36779 1.04285 2.13803C0.526043 1.90828 0.335037 1.52852 0.00239871 1.21538C0.713423 1.07656 1.451 0.804586 2.13585 0.824836C4.96808 0.914345 7.77408 1.15969 10.6059 1.22329C20.9989 1.46068 31.3937 1.82115 41.8046 1.82183C97.3674 1.82825 152.93 1.8217 208.505 1.65951C269.905 1.47989 331.31 1.14471 392.715 0.838681C403.852 0.781333 414.994 0.503656 426.137 0.387918C429.232 0.357403 432.336 0.527597 435.425 0.63968C435.925 0.659101 436.54 0.796872 436.806 0.971573C436.943 1.0605 436.542 1.435 436.18 1.54984C434.59 2.05318 433.023 2.61777 431.267 2.96455C425.309 4.14016 418.937 4.37202 412.609 4.6519C388.48 5.71716 364.307 5.72373 340.157 5.84013C309.197 5.98677 278.236 6.01033 247.276 6.10515C241.971 6.1223 236.66 6.2367 231.349 6.30576L231.346 6.12763L231.339 6.12448Z" fill="#F5F2E8"/>
</svg>
