<svg width="582" height="67" viewBox="0 0 582 67" fill="none" xmlns="http://www.w3.org/2000/svg">
<path d="M472.538 37.2687C453.435 37.3244 434.329 37.4335 415.222 37.4215C366.197 37.3951 317.185 37.501 268.139 37.2069C217.282 36.9037 166.398 36.2044 115.527 35.6514C84.871 35.3176 54.2121 34.9089 23.5559 34.5822C17.8266 34.5211 12.1139 34.6706 6.39731 34.763C5.27139 34.7794 4.13926 34.9272 3.079 35.1029C1.68981 35.3359 0.944029 35.8986 1.10523 36.7097C1.27138 37.5566 2.40211 37.9995 3.82911 38.092C6.78958 38.2778 9.74824 38.9227 12.735 38.4157C13.1041 38.3531 13.5732 38.4299 13.9987 38.4408C53.1801 39.2566 92.3639 40.158 131.544 40.8564C157.5 41.3185 183.446 41.5739 209.389 41.7651C235.144 41.959 260.9 42.0177 286.644 42.0296C314.619 42.0435 342.591 41.979 370.552 41.8641C401.715 41.7391 432.827 41.2951 463.864 40.3354C471.058 40.1134 478.237 39.8089 485.414 39.5221C486.241 39.4895 487.11 39.4089 487.825 39.2149C488.311 39.0825 488.936 38.6712 488.833 38.464C488.68 38.1693 487.983 37.8515 487.397 37.7235C486.751 37.5823 485.963 37.6308 485.245 37.6181C481.02 37.546 476.796 37.4774 472.565 37.405L472.552 37.2728L472.538 37.2687Z" fill="#F5F2E8"/>
<path d="M26.1225 27.1605C29.0807 27.3791 32.0378 27.6351 35.0057 27.8166C63.4039 29.5552 91.8737 30.0784 120.328 30.8178C164.003 31.9539 207.568 31.9847 251.131 31.8026C295.986 31.6157 340.874 31.7025 385.764 31.7631C442.589 31.8424 499.428 32.0192 556.26 32.1397C562.19 32.1515 568.113 32.1109 574.02 32.0287C575.677 32.0053 577.498 31.8936 578.843 31.5431C579.854 31.2793 580.794 30.5577 580.699 30.0543C580.618 29.6446 579.057 29.0211 577.965 28.9014C575.73 28.6566 573.375 28.6957 571.067 28.5981C544.519 27.492 518.028 27.5417 491.519 27.3407C456.227 27.0768 420.93 26.7343 385.651 26.6277C347.296 26.5117 308.941 26.4331 270.643 26.6886C207.787 27.1061 144.93 27.2995 81.8953 26.1091C68.3356 25.8534 54.7906 25.9456 41.2471 25.9893C36.591 26.0057 31.9839 26.3597 27.3556 26.575C26.8961 26.5981 26.4752 26.7456 26.0391 26.8367L26.1143 27.1528L26.1225 27.1605Z" fill="#F5F2E8"/>
</svg>
