<svg width="385" height="16" viewBox="0 0 385 16" fill="none" xmlns="http://www.w3.org/2000/svg">
<path d="M357.026 12.8998C345.336 12.6032 334.135 11.1976 323.799 7.13801C317.601 4.70739 311.982 5.72869 307.536 9.63452C306.055 10.934 304.472 12.2042 302.725 13.328C300.696 14.6385 298.115 15.2315 295.342 15.378C290.004 15.6562 284.821 15.2279 279.961 13.6136C274.491 11.7943 269.084 9.87612 263.619 8.0495C261.845 7.45648 260.013 6.91472 258.132 6.51938C251.547 5.13934 245.832 6.34001 240.675 9.35632C238.189 10.8132 235.518 12.1384 232.82 13.4049C230.159 14.6568 227.099 15.0778 223.886 15.1217C216.796 15.2132 209.966 14.2176 203.316 12.6618C201.112 12.1457 199.099 11.2196 197.033 10.4398C195.854 9.99326 194.755 9.44417 193.592 8.97196C187.813 6.61821 182.321 7.32836 177.016 9.74434C176.054 10.1836 175.167 10.7107 174.307 11.2415C171.221 13.1487 167.636 13.8625 163.504 13.7051C155.925 13.4159 148.813 11.9077 141.829 10.0152C137.835 8.93169 133.884 7.77861 129.917 6.65116C124.574 5.13202 119.825 5.96663 115.46 8.3643C114.026 9.15133 112.554 9.90541 111.131 10.6997C106.919 13.0462 102.139 14.0528 96.722 13.7929C90.2796 13.4818 83.9647 12.7863 78.0268 10.9597C73.2309 9.48444 68.4509 7.97994 63.7611 6.35099C59.884 5.0039 55.9113 4.2425 51.6305 4.92703C50.2018 5.15398 48.7094 5.67744 47.6312 6.35099C46.0379 7.34667 44.7261 8.5693 43.393 9.748C40.1532 12.6106 36.1327 13.9284 30.6994 13.6429C23.5187 13.2622 17.002 11.7906 11.1173 8.99026C8.10055 7.55532 5.20598 5.99958 2.27955 4.48044C1.78562 4.2242 1.19077 3.92037 1.01019 3.55431C0.818993 3.13701 0.888038 2.58792 1.13766 2.1816C1.22264 2.0425 2.3008 2.02419 2.75755 2.1816C5.94423 3.28709 9.08841 4.45115 12.2379 5.60423C18.59 7.9287 25.2342 9.47346 32.553 9.34534C34.2525 9.31605 35.7025 9.02687 36.839 8.17029C38.204 7.14167 39.6008 6.12037 40.8224 5.01122C45.8148 0.457469 52.629 -0.157507 60.0487 0.90772C62.598 1.27378 65.0146 2.15597 67.4205 2.91737C71.6694 4.2608 75.8174 5.76164 80.0982 7.05748C86.0519 8.86214 92.3828 9.53203 98.8411 9.68943C101.783 9.75898 104.482 9.19159 106.898 8.06048C108.736 7.2039 110.494 6.2668 112.278 5.35898C118.466 2.2182 125.136 1.0395 132.561 2.99791C138.143 4.46946 143.688 6.01422 149.297 7.43452C154.125 8.65715 159.138 9.29043 164.295 9.42953C166.691 9.49176 168.746 9.05981 170.584 8.00923C171.805 7.31006 173.059 6.62187 174.387 6.02154C181.068 3.00157 188.079 2.22919 195.509 4.65981C197.293 5.2455 199.094 5.81655 200.825 6.47179C207.863 9.13302 215.378 10.4765 223.408 10.5131C225.793 10.524 228.045 10.2166 230.037 9.3307C232.421 8.27279 234.795 7.18194 237.031 5.97761C242.544 3.00157 248.705 1.32869 255.716 2.00955C259.147 2.34266 262.562 3.15897 265.77 4.09974C271.4 5.75066 276.875 7.66147 282.399 9.48078C285.676 10.557 289.128 11.0255 292.74 11.1829C296.553 11.3513 299.49 10.3996 301.816 8.37163C302.863 7.46014 303.909 6.53768 305.104 5.72137C308.7 3.26147 313.076 1.91804 318.122 1.63251C320.602 1.48975 322.88 2.03518 325.127 2.66845C329.052 3.77761 332.892 5.05881 336.912 5.95565C345.23 7.80424 353.844 8.15565 362.523 7.8445C365.274 7.74567 367.733 6.98793 370.213 6.21555C373.41 5.21987 376.677 4.31571 379.98 3.50306C380.947 3.26513 382.184 3.36396 383.236 3.51405C384.787 3.73368 385.275 4.44383 384.612 5.43219C384.261 5.95565 383.719 6.545 383.023 6.80856C377.266 9.01589 371.721 11.5929 365.083 12.4239C362.443 12.7533 359.713 12.7533 357.026 12.9034V12.8998Z" fill="#F5F2E8"/>
</svg>
