<svg width="27" height="26" viewBox="0 0 27 26" fill="none" xmlns="http://www.w3.org/2000/svg">
<path d="M24.1364 0.825928H2.86364C1.55773 0.825928 0.5 1.84297 0.5 3.09865V23.5532C0.5 24.8089 1.55773 25.8259 2.86364 25.8259H24.1364C25.4423 25.8259 26.5 24.8089 26.5 23.5532V3.09865C26.5 1.84297 25.4423 0.825928 24.1364 0.825928ZM8.71836 21.2805H5.232V10.4941H8.71836V21.2805ZM6.93973 8.95206C5.81582 8.95206 4.907 8.07593 4.907 6.99752C4.907 5.91911 5.817 5.04411 6.93973 5.04411C8.06009 5.04411 8.97127 5.92025 8.97127 6.99752C8.97127 8.07593 8.06009 8.95206 6.93973 8.95206ZM21.7775 21.2805H18.2935V16.035C18.2935 14.7839 18.2698 13.1748 16.4817 13.1748C14.6676 13.1748 14.3887 14.5373 14.3887 15.9441V21.2805H10.9047V10.4941H14.2493V11.968H14.2965C14.7622 11.1202 15.8991 10.2259 17.595 10.2259C21.1251 10.2259 21.7775 12.46 21.7775 15.3646V21.2805V21.2805Z" fill="#F5F2E8"/>
</svg>
