<svg width="47" height="34" viewBox="0 0 47 34" fill="none" xmlns="http://www.w3.org/2000/svg">
<path fill-rule="evenodd" clip-rule="evenodd" d="M41.1122 31.1375C40.846 32.5285 39.6013 33.537 38.1505 33.537H8.84948C7.39875 33.537 6.15402 32.5285 5.88781 31.1375L3.19761 17.0804H2.71154C1.214 17.0804 0 15.8962 0 14.4356C0 12.9749 1.214 11.7908 2.71154 11.7908H7.22094C7.29125 11.5975 7.38588 11.4092 7.50568 11.2298L13.8941 1.66439C14.7115 0.440486 16.3914 0.0946446 17.6462 0.891933C18.9009 1.68922 19.2555 3.32772 18.4381 4.55162L13.6033 11.7908H33.4302L28.5954 4.55162C27.778 3.32772 28.1326 1.68922 29.3874 0.891933C30.6422 0.0946446 32.322 0.440486 33.1394 1.66439L39.5279 11.2298C39.6477 11.4092 39.7423 11.5975 39.8126 11.7908H44.2885C45.786 11.7908 47 12.9749 47 14.4356C47 15.8962 45.786 17.0804 44.2885 17.0804H43.8024L41.1122 31.1375ZM25.3077 28.2474C25.3077 29.2212 24.4984 30.0106 23.5 30.0106C22.5016 30.0106 21.6923 29.2212 21.6923 28.2474V19.4313C21.6923 18.4575 22.5016 17.6681 23.5 17.6681C24.4984 17.6681 25.3077 18.4575 25.3077 19.4313V28.2474ZM31.3333 30.0106C32.3317 30.0106 33.141 29.2212 33.141 28.2474V19.4313C33.141 18.4575 32.3317 17.6681 31.3333 17.6681C30.335 17.6681 29.5256 18.4575 29.5256 19.4313V28.2474C29.5256 29.2212 30.335 30.0106 31.3333 30.0106ZM17.4744 28.2474C17.4744 29.2212 16.665 30.0106 15.6667 30.0106C14.6683 30.0106 13.859 29.2212 13.859 28.2474V19.4313C13.859 18.4575 14.6683 17.6681 15.6667 17.6681C16.665 17.6681 17.4744 18.4575 17.4744 19.4313V28.2474Z" fill="#244441"/>
</svg>
