<svg width="29" height="24" viewBox="0 0 29 24" fill="none" xmlns="http://www.w3.org/2000/svg">
<path d="M25.3249 6.15573L25.6219 6.55794L25.1231 6.59318C25.1395 6.82421 25.1397 7.05818 25.1397 7.31264C25.1397 14.7758 19.5272 23.3259 9.31221 23.3259C6.86957 23.3259 4.56266 22.7717 2.50239 21.7768C5.06293 21.6473 7.41515 20.7151 9.32078 19.2045L10.4083 18.3424L9.02086 18.3128C6.99601 18.2695 5.25797 17.085 4.41555 15.3699C4.51838 15.3748 4.6226 15.3775 4.72845 15.3775C5.28918 15.3775 5.84705 15.2994 6.36537 15.1635L6.33903 14.19C4.1747 13.7463 2.49447 11.9663 2.18735 9.72524C2.81659 9.97127 3.49999 10.1211 4.21186 10.1482L5.96543 10.215L4.51043 9.23399C3.09856 8.28201 2.17256 6.65642 2.17256 4.81495C2.17256 4.09205 2.31171 3.41478 2.56478 2.79422C5.46516 6.08615 9.62589 8.2139 14.2604 8.4588L14.9071 8.49298L14.7765 7.85864C14.6934 7.45519 14.6446 7.04011 14.6446 6.62984C14.6446 3.70115 16.9855 1.32593 19.8832 1.32593C21.391 1.32593 22.752 1.96468 23.7093 2.99846L23.8983 3.20256L24.1714 3.14959C25.025 2.98403 25.8561 2.72176 26.6421 2.37672C26.2075 3.04707 25.6243 3.61262 24.937 4.02757L25.2496 4.95266C25.8588 4.88634 26.4571 4.76775 27.0375 4.60687C26.5183 5.17778 25.944 5.69849 25.3249 6.15573Z" fill="#F5F2E8" stroke="#E3E3EC"/>
</svg>
