<?xml version="1.0" standalone="no"?>
<!DOCTYPE svg PUBLIC "-//W3C//DTD SVG 20010904//EN"
 "http://www.w3.org/TR/2001/REC-SVG-20010904/DTD/svg10.dtd">
<svg version="1.0" xmlns="http://www.w3.org/2000/svg"
 width="700.000000pt" height="700.000000pt" viewBox="0 0 700.000000 700.000000"
 preserveAspectRatio="xMidYMid meet">
<metadata>
Created by potrace 1.14, written by Peter Selinger 2001-2017
</metadata>
<g transform="translate(0.000000,700.000000) scale(0.100000,-0.100000)"
fill="#000000" stroke="none">
<path d="M3255 6994 c-664 -52 -1272 -273 -1805 -654 -718 -514 -1223 -1307
-1389 -2180 -46 -245 -55 -353 -55 -660 0 -306 9 -413 55 -660 199 -1061 896
-1983 1866 -2469 363 -181 716 -288 1148 -347 185 -26 666 -26 850 0 810 111
1491 442 2046 996 574 572 912 1276 1011 2105 20 166 16 636 -6 800 -92 682
-336 1259 -747 1770 -309 385 -692 697 -1126 918 -382 195 -733 303 -1173 362
-110 15 -563 28 -675 19z m-922 -2262 c20 -18 24 -101 5 -120 -8 -8 -59 -12
-163 -12 -193 0 -188 4 -186 -147 1 -59 4 -109 7 -112 18 -18 91 -31 167 -29
68 1 91 -2 98 -13 13 -21 11 -95 -3 -107 -7 -5 -60 -12 -117 -14 -119 -6 -127
-11 -136 -87 -3 -25 -9 -71 -14 -100 -13 -84 9 -139 68 -170 26 -15 28 -14 34
10 4 16 11 19 26 14 11 -3 30 -1 42 5 14 8 24 9 31 2 7 -7 21 -5 44 4 18 8 49
14 68 14 31 0 38 -5 55 -40 10 -22 15 -42 11 -45 -5 -3 -11 -18 -15 -34 -8
-37 -20 -41 -91 -31 -33 4 -122 7 -199 5 -77 -1 -149 1 -161 6 -23 8 -24 23
-39 544 -3 105 -11 239 -16 298 -14 137 -5 166 50 168 409 16 405 16 434 -9z
m1162 -5 c17 -25 20 -80 5 -108 -10 -18 -23 -19 -168 -19 l-157 0 -17 -30
c-13 -24 -15 -36 -6 -67 6 -21 8 -59 5 -84 -3 -26 -4 -55 -1 -66 8 -28 81 -47
162 -40 96 7 112 -1 112 -61 0 -26 -5 -53 -12 -60 -7 -7 -46 -12 -98 -13 -47
-1 -96 -4 -110 -8 -30 -8 -49 -55 -49 -123 -1 -26 -6 -59 -12 -75 -26 -68 65
-197 100 -141 8 13 18 17 31 13 11 -3 29 -1 41 5 14 8 24 9 31 2 7 -7 21 -5
44 4 18 8 49 14 68 14 31 0 38 -5 55 -40 10 -22 15 -42 11 -45 -5 -3 -11 -18
-15 -34 -3 -16 -13 -32 -21 -35 -8 -3 -51 -1 -95 5 -45 5 -133 7 -195 4 -171
-8 -161 -18 -168 177 -3 90 -11 285 -18 433 -15 358 -15 382 -1 396 8 8 75 14
210 18 231 7 249 6 268 -22z m242 13 c23 0 45 -5 48 -10 3 -6 16 -8 28 -6 12
3 68 7 123 11 120 7 134 0 134 -70 0 -61 -17 -76 -81 -68 -43 5 -53 3 -74 -17
-14 -13 -25 -29 -25 -36 0 -8 -6 -11 -12 -9 -19 7 -21 -55 -3 -75 8 -8 14 -31
15 -50 1 -41 12 -506 14 -597 0 -35 -4 -67 -11 -74 -14 -14 -93 -24 -126 -15
-42 10 -46 42 -31 281 7 121 17 286 22 368 5 81 7 158 5 171 -6 32 -42 46
-113 46 l-59 0 -10 37 c-12 44 1 108 26 121 9 5 31 6 52 1 20 -5 55 -9 78 -9z
m1939 -16 c35 -20 64 -41 64 -48 0 -7 10 -23 22 -36 17 -18 21 -33 19 -74 -4
-69 -13 -78 -79 -74 l-55 3 -13 44 c-26 89 -89 117 -143 63 -21 -21 -29 -41
-35 -85 -5 -51 -3 -66 20 -117 22 -46 33 -59 55 -64 33 -6 174 -142 212 -203
21 -34 28 -122 16 -210 -12 -86 -15 -94 -52 -132 -30 -32 -47 -41 -73 -41 -18
0 -36 -4 -39 -10 -3 -5 -46 -10 -94 -10 -81 0 -91 2 -133 30 -54 36 -74 64
-87 120 -18 82 15 120 93 106 32 -6 40 -14 56 -49 29 -68 54 -87 106 -85 41 1
48 5 69 37 18 28 23 51 24 105 l0 69 -69 72 c-68 69 -86 105 -55 105 19 0 20
29 1 36 -8 3 -12 12 -10 19 4 10 -1 12 -15 8 -12 -3 -21 -12 -21 -19 0 -21
-44 -17 -74 7 -47 37 -69 94 -74 195 -4 72 -1 99 12 124 8 18 13 36 10 41 -3
5 2 9 10 9 8 0 21 12 28 28 21 43 89 72 171 72 60 0 77 -4 133 -36z m-2887 -2
c56 -32 99 -78 111 -123 12 -39 0 -62 -38 -78 -24 -10 -36 -10 -66 3 -20 8
-36 22 -36 30 0 21 -69 66 -100 66 -14 0 -40 -12 -57 -27 l-32 -28 7 -337 c5
-241 10 -340 19 -349 7 -7 33 -12 59 -13 36 -1 49 3 58 18 38 64 56 76 115 76
67 0 81 -11 81 -61 0 -28 -10 -49 -41 -88 -49 -62 -79 -78 -153 -87 -79 -9
-169 29 -223 94 l-38 46 -3 111 c-1 60 -3 145 -5 188 -2 68 0 77 15 77 22 0
23 16 2 24 -8 3 -13 9 -10 14 2 4 0 30 -5 57 -6 34 -6 59 2 77 6 15 8 32 3 39
-4 7 -9 35 -11 63 -12 143 78 235 230 236 56 0 76 -5 116 -28z m1536 8 c6 -3
63 -3 129 1 148 11 156 7 156 -66 0 -65 -13 -76 -83 -68 -41 5 -52 2 -72 -17
-14 -13 -25 -29 -25 -36 0 -8 -6 -11 -13 -8 -16 6 -14 -50 2 -70 7 -8 12 -31
13 -52 0 -22 1 -111 3 -199 1 -88 5 -225 9 -305 8 -175 7 -179 -79 -187 -52
-5 -62 -3 -79 16 -18 19 -19 32 -13 163 3 79 13 251 22 382 9 132 14 250 10
263 -7 30 -41 43 -109 43 -28 0 -57 5 -64 12 -15 15 -15 89 0 123 12 26 12 26
97 20 47 -4 91 -11 96 -15z m865 1 c14 -27 13 -104 -2 -119 -8 -8 -59 -12
-165 -12 l-153 0 -20 -32 c-15 -24 -16 -36 -8 -51 6 -12 8 -48 5 -84 -6 -83
-1 -103 29 -103 12 0 26 -5 29 -11 5 -7 41 -9 99 -8 50 2 96 0 103 -4 17 -11
24 -57 15 -92 l-8 -30 -106 -5 c-66 -4 -112 -11 -122 -19 -24 -20 -36 -77 -37
-177 -2 -107 0 -124 17 -124 7 0 16 -9 19 -20 4 -11 10 -18 15 -15 5 3 11 1
15 -5 10 -16 22 -12 28 10 4 16 11 19 29 15 13 -3 31 0 43 9 17 12 21 12 30
-1 9 -12 14 -12 40 1 17 9 47 16 67 16 33 0 40 -4 56 -37 19 -37 19 -39 1 -80
l-18 -42 -58 6 c-32 4 -125 7 -208 8 -196 2 -183 -1 -189 38 -3 17 -10 192
-16 387 -6 195 -15 395 -21 443 -13 120 -4 140 71 148 30 3 135 6 232 7 166 2
178 1 188 -17z m-3622 -12 c45 -14 66 -31 102 -84 26 -39 27 -44 26 -160 -2
-118 -2 -121 -39 -191 l-38 -70 20 -65 c11 -35 27 -95 36 -133 8 -37 29 -99
45 -136 38 -87 39 -115 2 -134 -31 -16 -116 -11 -130 8 -5 6 -14 54 -21 106
-7 52 -21 122 -31 155 -10 33 -23 79 -30 103 -20 76 -69 103 -110 62 -19 -19
-20 -31 -17 -180 2 -92 8 -164 14 -172 7 -8 8 -29 4 -53 -5 -31 -13 -43 -35
-54 -40 -19 -97 -5 -113 29 -8 17 -13 152 -18 435 -3 226 -11 429 -16 453 -19
86 13 101 209 96 57 -2 120 -8 140 -15z m2769 -1038 c11 -17 26 -19 170 -19
95 0 163 4 171 10 15 13 27 4 17 -11 -4 -8 -111 -11 -330 -11 -205 0 -326 -4
-330 -10 -4 -6 10 -10 34 -10 23 0 41 -4 41 -10 0 -6 -73 -10 -200 -10 -127 0
-200 4 -200 10 0 6 11 10 25 10 26 0 34 15 13 23 -7 3 9 6 35 6 34 1 49 -3 53
-14 4 -8 12 -15 20 -15 8 0 14 7 14 15 0 10 10 15 33 15 19 0 37 3 41 7 19 19
103 30 236 32 132 1 146 -1 157 -18z m969 -26 c21 -29 36 -31 54 -10 15 18 91
20 108 3 9 -9 15 -9 24 0 17 17 38 15 38 -3 0 -13 5 -12 35 2 28 14 41 14 73
5 43 -13 52 -28 72 -112 7 -30 16 -64 21 -75 10 -23 26 -187 33 -330 2 -55 9
-113 16 -130 14 -35 12 -280 -3 -309 -6 -13 -5 -21 3 -26 8 -5 10 -35 6 -101
-20 -365 -28 -466 -36 -484 -5 -11 -12 -51 -15 -90 -4 -38 -11 -74 -15 -80 -4
-5 -11 -25 -15 -43 -4 -18 -18 -46 -32 -62 -20 -25 -32 -30 -67 -30 -23 0 -47
5 -54 12 -9 9 -12 9 -12 0 0 -20 -81 -14 -114 8 -30 19 -30 19 -43 -1 -8 -10
-25 -19 -38 -19 -13 0 -26 -4 -30 -9 -8 -14 -65 -41 -65 -31 0 4 -9 10 -20 13
-11 3 -27 21 -35 41 -14 32 -18 35 -35 26 -24 -13 -80 12 -80 35 0 8 -4 15 -8
15 -15 0 -64 84 -69 120 -3 19 -9 40 -14 46 -5 5 -11 48 -14 95 -4 46 -11 93
-16 104 -5 11 -10 54 -12 95 -3 66 -3 63 -5 -27 -1 -60 -6 -105 -13 -109 -8
-4 -8 -9 0 -17 14 -14 15 -67 1 -67 -5 0 -12 23 -16 50 -4 27 -10 50 -15 50
-5 0 -9 32 -9 70 0 39 -4 70 -8 70 -5 0 -6 -27 -4 -60 4 -50 2 -60 -12 -60
-10 0 -16 -8 -15 -22 0 -21 1 -21 8 -4 9 23 16 14 26 -34 3 -19 8 -42 11 -51
5 -17 -46 -79 -64 -79 -14 0 -32 32 -32 56 0 18 -27 54 -42 54 -4 0 -8 -10 -8
-23 0 -13 -3 -27 -7 -31 -4 -4 -6 -27 -4 -53 l3 -46 -44 7 c-32 5 -52 16 -80
46 -21 21 -38 45 -38 52 0 21 67 52 113 53 22 1 43 7 45 13 2 7 10 12 18 12
19 0 18 17 -3 30 -13 8 -14 13 -5 16 6 3 12 19 12 35 l0 29 -73 0 c-45 0 -78
5 -85 12 -10 10 -15 10 -21 -1 -5 -7 -14 -10 -20 -7 -15 10 -13 47 3 69 12 15
16 16 23 4 4 -7 34 -19 66 -25 75 -15 111 1 126 54 11 39 4 65 -28 102 -15 17
-30 22 -70 22 -39 0 -51 4 -51 15 0 8 9 15 21 15 13 0 18 -4 13 -12 -4 -7 -3
-8 5 -4 6 4 9 12 6 17 -4 5 1 9 10 9 16 0 35 37 41 79 5 37 -3 42 -36 23 -29
-17 -30 -16 -57 11 -27 27 -28 28 -9 43 11 7 26 14 33 14 7 0 13 8 13 19 0 21
53 34 70 17 17 -17 42 17 38 54 -3 30 -5 32 -18 19 -22 -23 -85 -13 -104 15
-13 21 -13 24 5 39 11 10 29 17 42 17 48 1 69 42 48 95 -5 12 -3 36 5 59 18
49 18 49 -6 41 -16 -5 -20 -2 -20 14 0 25 -18 28 -27 5 -5 -13 -15 -15 -49
-10 -30 4 -45 1 -54 -9 -32 -39 -60 53 -64 210 -2 93 -2 95 21 95 13 0 32 6
43 12 15 10 22 10 32 0 6 -6 22 -12 33 -12 27 0 51 -26 60 -62 4 -16 11 -28
16 -28 5 0 9 -9 9 -20 0 -11 3 -20 6 -20 12 0 33 34 34 53 0 9 5 17 10 17 6 0
10 7 10 15 0 8 -4 15 -10 15 -5 0 -10 9 -10 20 0 11 3 20 7 20 14 0 43 -34 43
-50 0 -13 6 -16 28 -12 15 3 30 10 35 16 5 8 10 6 17 -4 7 -11 5 -16 -10 -18
-14 -2 -20 -11 -20 -28 0 -13 -5 -24 -11 -24 -5 0 -7 -4 -4 -10 3 -5 17 -10
31 -10 23 0 24 -2 18 -37 -3 -21 -10 -42 -15 -47 -13 -15 -11 -106 2 -106 8 0
10 14 6 40 -3 22 -1 43 4 46 9 5 15 -86 10 -158 -1 -21 2 -38 7 -38 12 0 24
224 11 228 -15 6 -11 72 5 78 9 3 20 31 26 62 13 64 31 112 42 112 13 0 9 -68
-3 -72 -8 -3 -13 -49 -14 -143 -1 -77 -3 -142 -5 -145 -1 -3 -1 -51 0 -107 1
-56 -2 -108 -6 -114 -4 -7 -8 -34 -9 -61 0 -30 -7 -54 -17 -65 -16 -15 -16
-17 0 -29 13 -9 17 -32 20 -101 5 -123 5 -297 0 -366 -2 -32 -1 -60 4 -63 4
-3 8 -27 8 -54 0 -27 5 -52 10 -55 6 -3 10 -17 10 -30 0 -13 4 -26 8 -29 4 -3
14 -28 22 -55 8 -31 19 -51 28 -51 11 0 12 3 3 14 -12 15 -29 156 -18 156 3 0
13 -8 22 -17 16 -16 17 -12 10 58 -4 41 -12 79 -17 86 -5 6 -12 80 -15 162 -4
90 -10 151 -16 151 -12 0 0 549 12 565 5 5 12 46 16 90 4 44 10 85 15 90 4 6
10 41 14 80 4 38 12 75 18 82 8 10 6 13 -6 13 -10 0 -16 -8 -16 -23 0 -27 -35
-73 -44 -58 -4 5 -2 12 4 16 5 3 10 27 11 53 1 88 14 135 47 170 18 19 33 28
37 22 9 -14 24 -3 35 26 8 20 16 24 53 24 35 0 48 -5 63 -25z m-469 -37 c12
-11 24 -31 28 -45 11 -45 -37 -75 -51 -31 -10 33 -26 45 -76 60 -52 15 -59 35
-10 30 18 -2 32 1 32 7 0 17 51 2 77 -21z m-3295 -2 c13 -19 9 -54 -9 -71 -14
-15 -29 -16 -91 -11 -101 9 -110 1 -106 -100 1 -42 5 -78 8 -81 3 -4 39 -7 78
-7 l73 -1 0 -45 0 -45 -63 -3 c-80 -4 -93 -21 -95 -124 -2 -59 2 -78 16 -92
11 -12 24 -15 35 -10 9 4 33 9 52 10 19 2 49 7 67 10 28 5 34 3 44 -20 9 -19
9 -32 1 -50 -10 -23 -13 -23 -146 -24 -132 0 -136 1 -136 22 0 18 -17 457 -22
593 -1 23 1 46 6 50 9 9 230 21 261 15 11 -3 23 -10 27 -16z m1268 15 c0 -13
-74 -41 -126 -48 -42 -5 -63 -23 -28 -23 14 0 14 -3 4 -15 -7 -8 -19 -15 -26
-15 -8 0 -14 -4 -14 -10 0 -5 -17 -10 -37 -10 -75 0 -114 -12 -123 -36 -5 -12
-18 -28 -30 -34 -23 -12 -28 -42 -5 -34 18 7 20 -13 3 -29 -21 -20 -68 -48
-68 -41 0 4 7 16 17 26 11 13 12 18 3 18 -7 0 -31 -19 -54 -43 -31 -33 -41
-51 -41 -75 1 -18 -2 -32 -6 -32 -4 0 -10 -20 -13 -45 -4 -24 -11 -47 -17 -50
-5 -4 -9 -15 -9 -26 0 -29 -15 -23 -18 8 -3 44 -12 40 -12 -6 0 -29 -4 -40
-11 -35 -8 5 -10 -1 -5 -19 3 -14 2 -29 -4 -32 -5 -3 -10 -39 -10 -80 0 -40
-4 -75 -10 -77 -14 -4 -15 -336 -1 -371 6 -16 11 -52 11 -82 0 -30 4 -56 9
-60 5 -3 13 -30 16 -60 4 -30 11 -55 15 -55 5 0 11 -8 14 -17 3 -10 3 0 0 23
-3 22 -5 61 -6 85 0 24 -4 49 -9 55 -6 7 -4 16 6 24 13 10 15 9 15 -8 0 -12 5
-24 10 -27 6 -3 10 -20 10 -36 0 -17 6 -32 15 -35 8 -4 15 -17 15 -31 0 -18
-4 -24 -15 -19 -11 4 -15 -1 -15 -19 0 -13 4 -26 9 -29 5 -4 12 -24 16 -46 4
-22 11 -42 16 -46 5 -3 9 -13 9 -23 0 -10 11 -26 23 -34 13 -9 30 -29 37 -46
7 -17 16 -31 21 -31 5 0 9 -6 9 -14 0 -8 5 -16 12 -18 9 -3 9 -6 0 -12 -8 -5
-29 10 -57 41 -32 34 -45 43 -45 30 0 -10 7 -20 15 -23 8 -4 12 -11 8 -17 -8
-13 -90 79 -98 111 -3 14 -12 31 -20 38 -7 8 -21 39 -30 70 -9 31 -22 66 -30
78 -16 25 -35 114 -35 161 0 18 -4 35 -9 37 -6 2 -12 32 -15 68 -3 36 -6 65
-7 65 -7 0 -5 88 3 118 6 26 6 43 -1 51 -6 7 -9 15 -7 17 2 2 9 58 16 124 11
118 34 245 49 275 5 9 12 30 16 48 3 18 10 32 15 32 4 0 11 17 15 38 8 47 23
67 58 76 25 6 32 19 28 52 -1 6 16 19 36 29 21 10 52 33 68 51 32 36 154 104
186 104 10 0 19 4 19 10 0 8 43 13 173 18 26 1 47 -2 47 -7z m-1112 -13 c7 -7
12 -21 12 -32 1 -24 39 -142 56 -169 16 -28 60 -7 69 32 3 17 4 35 0 41 -3 6
-4 18 -1 28 5 14 14 17 41 14 l35 -4 0 -233 c0 -128 3 -253 6 -278 6 -42 4
-47 -17 -57 -17 -8 -33 -8 -50 -2 -21 8 -29 25 -53 108 -31 111 -39 124 -72
124 -27 0 -27 3 -24 -138 l2 -93 -49 3 -48 3 -3 150 c-2 83 0 232 3 333 l7
182 37 0 c20 0 42 -5 49 -12z m196 2 c33 -12 33 -38 2 -50 -13 -5 -26 -14 -28
-20 -2 -6 -11 -8 -21 -5 -20 8 -24 70 -4 78 19 8 24 8 51 -3z m716 -170 c0 -5
-5 -10 -10 -10 -6 0 -15 -11 -20 -25 -12 -31 -28 -32 -40 -2 -5 12 -9 16 -9
10 -1 -7 -7 -13 -15 -13 -7 0 -19 -7 -26 -15 -7 -8 -19 -15 -26 -15 -8 0 -14
7 -14 15 0 8 7 15 15 15 8 0 29 9 46 19 17 11 38 17 45 14 8 -3 14 0 14 6 0 6
9 11 20 11 11 0 20 -4 20 -10z m-230 -145 c0 -8 -5 -15 -11 -15 -5 0 -15 -13
-20 -30 -6 -16 -17 -30 -25 -30 -10 0 -12 -8 -8 -29 4 -19 0 -38 -10 -52 -9
-13 -16 -31 -16 -41 0 -10 -4 -18 -10 -18 -5 0 -10 -13 -10 -28 0 -35 -23 -71
-35 -53 -4 7 -2 18 4 24 6 6 11 20 11 32 0 11 7 33 16 50 8 16 18 48 21 71 3
23 16 54 29 69 13 16 24 36 24 47 0 11 7 18 20 18 11 0 20 -7 20 -15z m380
-22 c19 -3 45 -5 57 -4 29 3 132 -50 165 -86 32 -33 47 -93 48 -185 0 -37 4
-69 9 -72 10 -7 -8 -98 -27 -132 -16 -30 -85 -90 -129 -112 -55 -28 -90 -33
-158 -24 -77 10 -88 7 -106 -26 -13 -22 -15 -64 -13 -237 1 -115 4 -219 6
-230 3 -18 -5 -21 -69 -29 -125 -15 -146 5 -130 118 5 34 9 269 10 524 2 566
-16 512 173 506 71 -3 145 -8 164 -11z m781 3 c59 -2 85 -8 115 -26 116 -69
127 -105 128 -410 1 -258 -11 -523 -26 -560 -5 -14 -24 -36 -41 -50 -26 -21
-30 -22 -24 -6 6 14 4 17 -9 12 -8 -3 -23 -6 -31 -6 -13 0 -13 -3 -3 -15 15
-18 15 -19 -27 -33 -28 -9 -33 -8 -38 9 -5 13 1 25 16 37 18 15 20 22 11 39
-9 17 -9 22 3 27 24 9 18 28 -6 21 -20 -7 -21 -5 -13 16 13 36 17 710 4 723
-5 5 -10 20 -10 33 0 31 -80 83 -127 83 -39 0 -99 -49 -119 -97 -16 -38 -18
-120 -4 -181 6 -24 7 -49 3 -55 -5 -7 -9 -82 -10 -167 -5 -290 -10 -385 -21
-412 -6 -15 -7 -30 -2 -33 5 -3 11 4 15 15 9 27 45 47 45 25 0 -9 7 -29 15
-45 19 -36 63 -41 83 -10 8 14 23 20 46 20 41 0 64 -23 46 -45 -6 -8 -9 -19
-5 -26 4 -6 1 -15 -6 -20 -23 -14 -147 -10 -186 6 -20 8 -38 13 -41 10 -2 -2
-14 0 -24 6 -17 9 -19 18 -14 49 3 22 2 41 -4 45 -15 10 -12 25 6 25 9 0 14 5
12 11 -5 14 -7 14 -50 -7 -21 -10 -40 -15 -44 -12 -3 4 -6 28 -6 55 0 26 -6
54 -12 62 -8 11 -8 15 2 18 6 3 12 11 12 18 0 8 8 19 18 24 13 8 14 10 2 11
-36 0 -50 100 -14 100 12 0 12 4 -2 25 -8 13 -13 28 -11 33 3 4 2 14 -3 22 -5
9 -5 19 2 27 7 9 7 13 -2 13 -8 0 -10 8 -7 23 3 12 -2 46 -12 74 -17 51 -17
53 0 69 10 9 16 21 13 25 -12 21 -12 154 1 188 7 20 16 53 20 73 3 23 14 42
26 48 11 6 24 22 29 36 14 37 142 82 190 67 8 -3 49 -6 91 -7z m517 -13 c45
-3 84 -9 86 -12 2 -3 51 -3 108 0 233 15 243 12 243 -69 0 -74 -14 -86 -97
-77 -60 5 -72 4 -98 -15 -17 -12 -30 -30 -30 -41 0 -17 -3 -18 -21 -8 -19 10
-20 9 -14 -11 5 -15 2 -26 -6 -31 -11 -7 -10 -9 5 -9 14 0 16 -3 7 -14 -9 -11
-7 -15 10 -19 18 -5 20 -10 14 -50 -5 -29 -3 -47 4 -51 9 -6 15 -254 11 -493
0 -17 4 -52 10 -78 11 -51 0 -114 -23 -134 -22 -18 -154 -26 -173 -10 -39 32
-39 8 6 634 6 77 11 171 11 209 2 93 -13 106 -120 106 -95 0 -112 10 -114 70
-3 81 27 125 78 114 11 -2 57 -7 103 -11z m628 -205 c4 -6 2 -14 -4 -16 -15
-5 -16 -58 -2 -67 6 -3 10 -13 10 -21 0 -10 -12 -14 -42 -14 -51 0 -60 5 -74
47 -11 31 -4 53 19 53 5 0 15 7 23 15 18 18 60 20 70 3z m-2428 -120 c-5 -34
-38 -37 -38 -4 0 20 5 26 21 26 15 0 20 -5 17 -22z m-37 -99 c-2 -8 -6 -26 -9
-41 -7 -44 -22 -32 -22 18 0 38 3 45 18 42 9 -2 15 -11 13 -19z m2510 -411 c5
-10 5 -27 -1 -43 -9 -23 -14 -26 -52 -23 -35 2 -44 7 -46 25 -7 50 75 85 99
41z m310 -25 c-9 -16 -10 -14 -11 12 0 21 3 26 11 18 8 -8 8 -16 0 -30z m-21
-177 c0 -8 -4 -18 -10 -21 -5 -3 -10 3 -10 14 0 12 5 21 10 21 6 0 10 -6 10
-14z m-2698 -43 c12 -8 18 -15 56 -75 10 -17 26 -28 39 -28 12 0 28 -6 35 -13
13 -15 44 -11 66 6 10 8 16 7 23 -4 5 -8 9 -10 9 -5 0 5 11 -1 25 -14 20 -19
27 -21 39 -10 13 10 15 7 14 -23 -1 -36 24 -87 42 -87 6 0 10 -4 10 -10 0 -16
-43 -11 -85 10 -22 11 -44 20 -51 20 -6 0 -23 11 -38 25 -15 14 -46 35 -68 48
-23 12 -46 32 -52 42 -6 11 -16 23 -22 27 -20 13 -74 104 -73 124 0 17 1 17 9
-3 5 -12 15 -25 22 -30z m2668 -288 c0 -29 -3 -30 -35 -9 -29 19 -24 34 11 34
19 0 24 -5 24 -25z m-2585 6 c3 -5 19 -12 36 -16 17 -4 33 -13 36 -21 3 -8 11
-14 17 -14 7 0 21 -7 32 -15 18 -15 17 -16 -16 -9 -19 3 -36 10 -38 15 -2 5
-9 9 -15 9 -14 0 -77 43 -77 53 0 10 18 9 25 -2z m2525 -43 c0 -18 -5 -28 -14
-28 -8 0 -23 -10 -33 -23 -26 -33 -53 -41 -69 -20 -10 15 -16 16 -32 6 -24
-14 -36 -5 -20 14 7 8 11 30 10 48 l-2 32 80 -1 80 -1 0 -27z m-2224 -13 c24
-22 33 -23 239 -27 199 -3 239 -7 221 -25 -14 -14 -355 -16 -431 -2 -41 7 -75
17 -75 21 0 4 -7 8 -16 8 -18 0 -124 47 -124 56 0 3 36 2 81 -2 64 -5 86 -11
105 -29z m2234 -54 c0 -10 -50 -25 -57 -17 -3 2 -2 9 2 15 8 13 55 15 55 2z
m-845 -31 c3 -6 48 -10 100 -10 84 0 121 -9 97 -24 -17 -10 -952 -19 -952 -9
0 13 95 23 155 17 27 -2 45 0 45 6 0 5 10 10 23 10 12 0 29 5 37 10 20 13 487
13 495 0z"/>
<path d="M1413 4619 c-50 -15 -65 -47 -67 -137 -1 -97 21 -142 76 -156 46 -12
80 -2 121 33 32 29 33 30 30 110 -2 74 -18 131 -41 145 -19 11 -89 15 -119 5z"/>
<path d="M4829 3253 c-1 -21 -1 -52 0 -69 1 -18 -2 -35 -8 -39 -15 -9 -14 -42
2 -49 10 -5 10 -7 0 -12 -15 -7 -18 -114 -4 -114 6 0 13 21 16 48 4 26 10 58
15 72 5 14 8 50 6 80 -2 30 -4 70 -5 88 -1 45 -21 40 -22 -5z"/>
<path d="M5490 3251 c0 -6 5 -13 10 -16 6 -3 10 1 10 9 0 9 -4 16 -10 16 -5 0
-10 -4 -10 -9z"/>
<path d="M5146 3220 c-5 -14 -8 -46 -7 -72 1 -27 -3 -48 -9 -48 -5 0 -10 -8
-10 -17 0 -9 -8 -25 -17 -36 -35 -37 -29 -715 6 -750 9 -9 11 11 9 87 -2 66 1
100 8 103 7 2 13 -31 18 -99 4 -57 11 -104 17 -106 5 -2 9 -19 9 -38 0 -19 8
-49 17 -67 l16 -32 9 30 c4 17 4 42 -2 59 -6 16 -9 41 -9 55 2 22 2 23 6 4 2
-12 10 -26 17 -32 11 -9 15 -3 19 26 4 21 2 42 -3 47 -6 6 -10 56 -10 112 0
58 -4 106 -10 109 -6 4 -10 108 -10 280 l0 274 -24 26 c-16 18 -26 41 -28 68
-3 38 -4 40 -12 17z m44 -120 c0 -5 -5 -10 -11 -10 -5 0 -7 5 -4 10 3 6 8 10
11 10 2 0 4 -4 4 -10z m-70 -510 c0 -5 -4 -10 -10 -10 -5 0 -10 5 -10 10 0 6
5 10 10 10 6 0 10 -4 10 -10z m15 -40 c8 -13 -14 -42 -26 -34 -5 3 -9 14 -9
25 0 20 24 26 35 9z"/>
<path d="M5483 3183 c-20 -8 -15 -23 7 -23 11 0 20 7 20 15 0 15 -6 17 -27 8z"/>
<path d="M5290 3101 c0 -33 -5 -63 -10 -66 -14 -8 -12 -425 1 -441 6 -7 11
-59 13 -116 2 -66 9 -117 19 -141 16 -36 37 -43 37 -11 0 8 9 14 21 14 17 0
20 -4 15 -24 -4 -16 -1 -26 9 -30 15 -5 25 19 23 54 -1 8 2 25 6 38 5 14 3 22
-5 22 -9 0 -9 3 0 14 9 10 9 16 1 21 -8 5 -8 11 -1 19 7 9 7 16 -1 24 -9 9 -9
12 0 12 7 0 12 7 12 15 0 8 -5 15 -10 15 -6 0 -10 19 -8 45 3 40 6 45 27 45
23 0 24 -1 6 -20 -16 -18 -17 -20 -1 -20 13 0 15 -6 10 -25 -5 -20 -2 -25 12
-25 18 -1 18 -1 2 -14 -25 -18 -22 -26 7 -26 14 0 25 -4 25 -10 0 -5 -11 -10
-25 -10 -38 0 -32 -28 8 -33 l32 -4 -32 -1 c-25 -2 -33 -7 -33 -21 0 -14 6
-17 24 -14 13 3 27 0 30 -6 5 -7 -4 -11 -25 -11 -26 0 -29 -2 -20 -14 7 -8 24
-14 39 -13 l27 2 3 369 c2 342 1 370 -15 382 -24 18 -53 17 -53 -1 0 -10 10
-15 31 -15 17 0 28 -4 24 -10 -3 -5 -21 -9 -38 -7 -42 3 -44 -25 -2 -34 l30
-7 -32 -1 c-44 -1 -46 -31 -3 -31 17 0 30 -4 30 -10 0 -5 -13 -10 -30 -10 -16
0 -30 -4 -30 -10 0 -5 13 -10 29 -10 29 0 49 -14 34 -23 -5 -3 -24 -7 -43 -9
-26 -2 -35 1 -36 12 -1 8 -2 64 -2 123 -2 82 -5 108 -14 105 -7 -3 -16 -26
-20 -52 -4 -27 -9 -50 -12 -53 -10 -10 -26 9 -26 33 0 14 -6 24 -14 24 -8 0
-16 10 -18 22 -2 12 -9 23 -15 26 -10 3 -13 -13 -13 -57z m180 -211 c0 -5 -9
-10 -20 -10 -11 0 -20 5 -20 10 0 6 9 10 20 10 11 0 20 -4 20 -10z m-18 -52
c-9 -9 -15 -9 -24 0 -9 9 -7 12 12 12 19 0 21 -3 12 -12z m8 -38 c0 -5 -7 -10
-15 -10 -8 0 -15 5 -15 10 0 6 7 10 15 10 8 0 15 -4 15 -10z m-10 -72 c0 -5
-4 -8 -10 -8 -5 0 -10 10 -10 23 0 18 2 19 10 7 5 -8 10 -18 10 -22z m-10 -78
c0 -5 -7 -10 -16 -10 -8 0 -12 5 -9 10 3 6 10 10 16 10 5 0 9 -4 9 -10z"/>
<path d="M5468 3123 c6 -2 18 -2 25 0 6 3 1 5 -13 5 -14 0 -19 -2 -12 -5z"/>
<path d="M4836 2751 c-4 -25 -1 -48 8 -65 l14 -27 4 38 c3 21 1 44 -5 50 -5 7
-7 20 -3 28 3 8 2 15 -3 15 -5 0 -11 -18 -15 -39z"/>
<path d="M4790 2640 c0 -6 -10 -8 -25 -4 -30 7 -31 0 -7 -31 14 -17 22 -21 35
-13 19 10 23 43 7 53 -5 3 -10 1 -10 -5z"/>
<path d="M1831 3326 c-7 -8 -11 -20 -10 -28 1 -7 -3 -24 -10 -38 -8 -18 -10
-45 -4 -90 l8 -65 38 -3 c40 -3 53 16 17 25 -24 6 -25 21 -5 47 9 11 11 22 6
26 -6 3 -6 23 0 52 14 66 -10 110 -40 74z"/>
<path d="M2670 3183 c-8 -3 -35 -26 -60 -49 -39 -38 -43 -46 -33 -63 10 -16 9
-20 -3 -25 -9 -4 -12 -11 -8 -18 5 -7 8 -46 9 -86 0 -68 3 -76 28 -97 14 -13
47 -27 72 -30 40 -7 49 -4 92 27 61 43 74 71 80 166 4 79 -6 118 -37 132 -8 4
-25 12 -37 18 -13 7 -32 12 -43 12 -11 0 -20 5 -20 10 0 11 -16 12 -40 3z"/>
<path d="M4626 3022 c-3 -5 -3 -17 -1 -28 2 -10 4 -21 4 -24 2 -11 21 26 21
43 0 17 -15 23 -24 9z"/>
</g>
</svg>
