<?xml version="1.0" standalone="no"?>
<!DOCTYPE svg PUBLIC "-//W3C//DTD SVG 20010904//EN"
 "http://www.w3.org/TR/2001/REC-SVG-20010904/DTD/svg10.dtd">
<svg version="1.0" xmlns="http://www.w3.org/2000/svg"
 width="1080.000000pt" height="1080.000000pt" viewBox="0 0 1080.000000 1080.000000"
 preserveAspectRatio="xMidYMid meet">
<metadata>
Created by potrace 1.14, written by Peter Selinger 2001-2017
</metadata>
<g transform="translate(0.000000,1080.000000) scale(0.100000,-0.100000)"
fill="#000000" stroke="none">
<path d="M5010 10787 c0 -5 -7 -7 -15 -3 -8 3 -15 1 -15 -4 0 -6 -9 -6 -25 0
-14 5 -25 6 -25 2 0 -4 -25 -7 -55 -6 -32 1 -55 -3 -55 -9 0 -6 -3 -7 -7 -4
-3 4 -13 1 -21 -6 -13 -10 -14 -9 -7 3 6 12 5 13 -6 3 -7 -7 -25 -13 -40 -13
-16 0 -33 -9 -43 -22 -9 -13 -14 -16 -10 -8 4 8 -3 5 -15 -8 -14 -14 -32 -22
-49 -20 -33 2 -74 -11 -67 -21 2 -5 -8 -8 -23 -9 -15 0 -29 -1 -32 -2 -3 -1
-15 -3 -27 -6 -13 -2 -33 -6 -45 -8 -13 -3 -24 -5 -25 -7 -2 -1 -7 -3 -13 -4
-5 -1 -11 -3 -12 -5 -6 -4 -44 -12 -65 -14 -13 0 -23 -3 -23 -6 0 -3 -26 -5
-58 -4 -31 0 -61 -2 -67 -5 -5 -3 -21 -6 -35 -7 -14 0 -53 -4 -88 -8 -35 -5
-109 -8 -165 -8 -81 0 -106 -4 -124 -18 -17 -13 -19 -20 -10 -30 9 -10 9 -11
0 -6 -8 4 -17 -2 -24 -16 -9 -22 -22 -27 -71 -31 -9 -1 -14 -6 -11 -11 4 -5
-1 -7 -10 -3 -9 3 -19 2 -22 -3 -4 -6 -17 -10 -30 -10 -13 0 -26 4 -30 10 -3
5 -12 7 -21 3 -8 -3 -14 -2 -13 3 4 17 -13 44 -27 44 -8 0 -14 4 -14 9 0 10
-39 3 -57 -11 -7 -6 -14 -4 -19 3 -5 8 -3 9 6 4 9 -6 11 -4 5 5 -6 10 -10 10
-19 -2 -11 -15 -36 -13 -47 5 -7 10 -189 18 -189 8 0 -4 -9 -7 -20 -8 -18 -2
-74 -33 -58 -33 3 0 2 -16 -3 -35 -7 -24 -6 -41 2 -56 8 -15 8 -19 0 -15 -6 4
-11 2 -11 -3 0 -6 7 -11 17 -11 14 0 14 -2 -2 -20 -10 -11 -22 -17 -26 -14 -5
3 -9 0 -9 -7 0 -7 -8 -9 -21 -6 -12 3 -22 0 -26 -9 -3 -8 -9 -11 -14 -8 -5 3
-17 -8 -27 -25 -12 -23 -24 -31 -44 -31 -30 0 -73 -34 -63 -50 4 -6 -1 -10
-10 -10 -9 0 -14 -4 -11 -9 3 -5 -1 -12 -10 -15 -8 -3 -12 -10 -9 -16 3 -5 2
-10 -4 -10 -5 0 -8 -9 -6 -20 2 -11 0 -20 -4 -20 -4 0 -7 -16 -6 -36 2 -27 -1
-34 -11 -30 -8 3 -14 1 -14 -4 0 -5 -7 -7 -15 -4 -8 3 -14 9 -13 12 3 30 -4
48 -23 49 -11 1 -22 -4 -25 -11 -3 -8 -21 -12 -49 -11 -25 1 -45 -1 -45 -4 0
-4 -9 -7 -19 -7 -11 0 -17 4 -15 8 3 4 -3 9 -13 9 -10 1 -25 2 -33 3 -8 0 -18
-3 -21 -7 -3 -4 -19 -10 -35 -13 -16 -3 -38 -8 -49 -11 -11 -4 -26 -6 -32 -5
-7 2 -13 -2 -13 -7 0 -6 -7 -8 -15 -5 -8 4 -15 1 -15 -5 0 -6 -7 -11 -15 -11
-8 0 -24 -9 -35 -20 -12 -12 -25 -18 -29 -15 -5 3 -8 -10 -7 -29 1 -19 -3 -32
-8 -28 -5 3 -7 -2 -3 -11 4 -10 -1 -18 -14 -22 -10 -4 -19 -11 -19 -16 0 -6
-5 -7 -10 -4 -13 8 -43 -22 -35 -35 4 -6 3 -10 -2 -9 -4 1 -17 1 -28 0 -15 -1
-17 -3 -6 -10 11 -7 9 -10 -8 -16 -14 -4 -20 -12 -17 -21 3 -9 1 -12 -4 -9 -5
3 -18 1 -27 -5 -17 -11 -17 -11 1 -6 16 6 17 4 6 -9 -7 -9 -15 -13 -17 -11
-10 9 -30 -19 -25 -33 3 -9 1 -12 -6 -7 -7 4 -27 -9 -47 -29 -19 -20 -39 -34
-45 -30 -5 3 -7 0 -5 -7 3 -8 -8 -29 -24 -47 -20 -22 -31 -28 -34 -19 -5 12
-11 -16 -8 -35 1 -5 -3 -5 -9 -2 -14 9 -73 -52 -65 -66 4 -5 1 -17 -7 -26 -11
-14 -11 -16 2 -8 8 4 5 -2 -8 -14 -13 -13 -27 -19 -35 -15 -7 5 -5 0 3 -11 8
-10 10 -16 4 -13 -5 4 -18 -4 -28 -18 -11 -13 -25 -24 -33 -24 -8 0 -11 -4 -8
-10 3 -5 1 -10 -5 -10 -6 0 -8 -4 -5 -10 4 -6 -1 -7 -12 -3 -10 3 -15 3 -11
-1 7 -9 -33 -55 -43 -50 -4 2 -18 -7 -33 -21 -15 -14 -35 -29 -46 -35 -11 -6
-17 -16 -14 -25 4 -10 0 -15 -11 -15 -9 0 -13 -4 -10 -10 3 -5 -1 -10 -9 -10
-9 0 -16 -7 -16 -15 0 -8 -3 -14 -8 -14 -16 3 -32 -1 -31 -8 3 -20 -2 -26 -11
-13 -8 13 -10 12 -10 -3 0 -9 -11 -23 -25 -29 -14 -6 -25 -16 -25 -22 0 -18
-34 -43 -54 -40 -10 1 -15 0 -12 -3 8 -9 -15 -34 -25 -27 -5 3 -6 -3 -2 -12 4
-12 3 -15 -5 -10 -7 4 -12 1 -12 -9 0 -9 -4 -13 -10 -10 -5 3 -11 1 -11 -4 -1
-6 -2 -15 -3 -21 0 -5 -4 -10 -8 -10 -4 0 -20 -12 -34 -25 -15 -14 -31 -25
-35 -25 -5 0 -6 -6 -3 -14 3 -8 -3 -19 -16 -26 -11 -6 -18 -15 -15 -20 6 -10
-32 -33 -43 -26 -5 3 -16 -8 -26 -25 -9 -16 -24 -29 -33 -29 -9 0 -13 -3 -10
-7 4 -3 -1 -12 -11 -20 -10 -9 -11 -12 -2 -7 8 4 0 -7 -18 -24 -20 -19 -31
-36 -26 -43 5 -8 2 -10 -9 -6 -11 4 -15 1 -12 -13 2 -11 -1 -19 -8 -17 -7 1
-11 -6 -11 -15 1 -10 -3 -18 -9 -18 -6 0 -8 -3 -5 -6 8 -7 -35 -51 -45 -46 -5
2 -7 -4 -5 -14 2 -12 -2 -18 -10 -16 -8 1 -11 -2 -7 -8 3 -5 1 -10 -4 -10 -6
0 -10 -3 -9 -7 3 -15 -14 -43 -23 -38 -5 3 -11 -6 -15 -20 -3 -14 -11 -25 -16
-25 -6 0 -4 -8 3 -17 10 -12 10 -14 1 -9 -7 4 -15 1 -18 -8 -3 -9 -11 -13 -18
-9 -6 3 -8 3 -4 -1 4 -5 3 -19 -2 -32 -6 -14 -6 -26 0 -29 6 -3 5 -16 -1 -33
-13 -34 -13 -33 3 -43 9 -6 9 -9 1 -9 -7 0 -10 -9 -8 -22 3 -12 0 -27 -6 -35
-8 -9 -8 -13 -1 -13 7 0 9 -7 5 -17 -4 -9 -2 -14 3 -11 5 4 9 -7 9 -23 1 -16
-2 -29 -5 -29 -3 0 -6 -18 -7 -40 -1 -27 2 -38 9 -34 7 4 8 2 4 -5 -4 -6 -12
-9 -17 -6 -5 4 -9 -1 -9 -9 0 -9 -4 -16 -10 -16 -5 0 -10 -10 -10 -22 0 -53
-5 -68 -23 -74 -16 -5 -17 -8 -6 -15 11 -7 11 -9 1 -9 -7 0 -11 -4 -7 -9 3 -5
1 -13 -5 -16 -6 -4 -8 -16 -4 -27 4 -14 2 -18 -5 -14 -6 4 -11 4 -12 -1 -3
-43 -10 -67 -19 -73 -7 -4 -11 -11 -10 -15 1 -4 -7 -18 -19 -31 -11 -13 -18
-24 -14 -24 3 0 -4 -8 -15 -19 -12 -10 -19 -21 -15 -25 3 -3 1 -6 -6 -6 -7 0
-9 -5 -5 -11 3 -6 2 -14 -4 -18 -6 -3 -12 -18 -15 -31 -4 -29 -27 -80 -42 -96
-6 -6 -25 -15 -42 -18 -29 -7 -30 -10 -32 -59 -2 -82 -7 -109 -22 -118 -8 -5
-10 -9 -5 -9 5 0 -3 -11 -17 -24 -14 -13 -23 -27 -20 -30 4 -3 -1 -6 -10 -6
-10 0 -14 -5 -11 -15 6 -15 -7 -21 -19 -8 -4 3 -19 7 -33 8 -26 1 -32 -6 -39
-42 -2 -10 -4 -20 -4 -22 -1 -2 -9 3 -18 10 -10 8 -14 9 -10 2 4 -6 0 -16 -9
-21 -9 -5 -15 -12 -15 -15 3 -21 -1 -27 -17 -27 -25 0 -45 -93 -24 -113 11
-12 11 -16 1 -22 -8 -6 -10 -4 -4 6 5 8 4 11 0 6 -5 -4 -9 -18 -10 -31 0 -17
4 -22 14 -18 10 4 13 1 8 -11 -4 -11 -1 -17 7 -17 8 0 16 -11 18 -25 3 -13 1
-22 -4 -19 -4 3 -14 -8 -21 -25 -7 -17 -15 -29 -18 -27 -2 2 -4 -7 -4 -20 0
-21 11 -29 37 -25 4 0 6 -8 5 -19 -1 -14 -6 -19 -16 -15 -9 3 -12 3 -8 -1 4
-4 2 -13 -4 -20 -6 -7 -11 -25 -13 -41 -1 -15 -6 -34 -10 -42 -7 -10 -5 -12 5
-7 8 4 3 -1 -10 -12 -13 -11 -21 -24 -17 -31 4 -6 2 -11 -4 -11 -7 0 -10 -7
-6 -15 3 -8 2 -15 -2 -15 -5 0 -9 -18 -10 -40 -2 -22 2 -40 7 -40 6 0 15 -10
22 -21 9 -17 8 -20 -3 -13 -11 6 -11 5 0 -8 9 -12 10 -18 2 -23 -6 -4 -9 -13
-7 -19 3 -7 -3 -18 -12 -25 -14 -10 -17 -26 -15 -76 2 -51 0 -63 -11 -59 -11
5 -14 -37 -15 -254 0 -193 3 -261 11 -264 7 -2 13 -12 15 -21 1 -9 -2 -14 -7
-11 -6 3 -8 -5 -5 -20 3 -14 1 -26 -3 -26 -4 0 -7 -11 -7 -25 0 -14 4 -25 9
-25 14 0 37 -27 29 -35 -4 -5 -1 -5 6 -1 24 14 59 -2 64 -29 4 -17 1 -25 -8
-25 -8 0 -14 -5 -14 -11 0 -5 -6 -7 -12 -3 -10 6 -10 5 -1 -8 7 -8 10 -18 6
-21 -3 -4 -1 -7 5 -7 7 0 12 -9 12 -21 0 -11 -4 -18 -9 -15 -4 3 -6 -6 -3 -20
3 -19 7 -22 13 -12 6 9 9 7 9 -9 0 -12 -6 -28 -13 -35 -7 -7 -12 -28 -11 -46
0 -17 -3 -32 -7 -32 -5 0 -9 -11 -9 -25 0 -14 -6 -25 -12 -25 -10 0 -10 -2 -1
-8 8 -5 9 -13 3 -22 -5 -8 -5 -21 1 -31 5 -10 10 -29 11 -43 1 -13 5 -23 8
-21 3 1 11 -3 18 -11 7 -8 10 -14 7 -14 -3 0 -1 -8 4 -19 6 -10 7 -22 3 -26
-4 -3 -7 -10 -8 -13 0 -4 -4 -34 -9 -67 -11 -75 -9 -113 9 -130 7 -8 16 -12
18 -10 2 3 5 -14 7 -38 1 -23 7 -45 13 -48 18 -11 13 -111 -6 -125 -9 -6 -16
-16 -16 -23 0 -6 -4 -11 -10 -11 -5 0 -8 -27 -6 -62 4 -67 7 -86 19 -105 5 -7
5 -13 1 -13 -4 0 0 -8 9 -18 10 -10 14 -21 11 -25 -12 -11 8 -49 22 -43 9 3
12 1 9 -4 -3 -6 -2 -10 2 -10 5 0 10 -14 11 -32 2 -17 8 -38 14 -45 6 -7 7
-13 3 -13 -4 0 -2 -6 4 -13 6 -8 8 -17 5 -20 -4 -3 0 -13 7 -21 26 -29 35 -41
37 -51 7 -31 15 -44 25 -42 7 1 11 -4 9 -10 -1 -7 3 -13 9 -13 6 0 9 -7 6 -15
-4 -8 -2 -17 4 -20 5 -4 7 -11 4 -16 -4 -5 -1 -9 5 -9 6 0 9 -4 6 -8 -2 -4 7
-9 21 -10 37 -3 43 -10 38 -45 -10 -67 -11 -87 -2 -87 5 0 7 -6 4 -12 -2 -7 2
-20 9 -29 8 -9 16 -44 17 -79 3 -53 7 -65 25 -73 24 -11 38 -40 22 -45 -6 -2
-2 -12 10 -22 11 -10 20 -22 19 -26 -4 -18 15 -50 47 -80 27 -25 33 -39 35
-77 2 -26 7 -47 11 -47 5 0 6 -5 3 -10 -3 -6 1 -13 10 -16 13 -6 14 -8 3 -15
-10 -7 -10 -9 3 -9 34 0 54 -40 58 -117 1 -6 8 -19 17 -28 11 -11 13 -19 6
-28 -13 -16 -13 -29 1 -46 10 -12 9 -13 -2 -6 -11 6 -12 5 -5 -6 5 -8 9 -25
10 -39 1 -14 7 -37 12 -52 10 -23 9 -26 -5 -21 -11 4 -14 3 -9 -5 4 -7 2 -12
-6 -12 -7 0 -14 -13 -15 -30 -2 -22 5 -35 30 -54 18 -15 35 -22 41 -16 5 5 18
-1 31 -13 17 -17 20 -25 11 -36 -8 -11 -8 -13 2 -7 7 4 12 2 12 -4 0 -6 4 -8
10 -5 9 6 14 -8 11 -27 0 -5 3 -8 9 -8 6 0 9 -3 9 -7 -1 -5 0 -11 1 -15 1 -5
3 -11 5 -15 6 -24 18 -42 24 -39 4 3 8 -7 9 -22 1 -15 11 -34 22 -44 11 -9 20
-21 20 -27 0 -5 8 -15 18 -20 9 -6 13 -11 9 -11 -5 0 -1 -7 7 -16 9 -8 14 -20
11 -25 -4 -5 1 -9 10 -9 9 0 23 -7 31 -15 9 -8 13 -15 9 -15 -3 0 0 -6 7 -14
7 -8 16 -12 20 -9 4 2 5 -4 1 -13 -4 -12 -3 -15 5 -10 7 4 12 1 12 -8 0 -9 5
-16 11 -16 5 0 7 -5 4 -10 -3 -6 1 -13 10 -16 13 -6 14 -8 3 -15 -10 -7 -10
-9 0 -9 6 0 12 -7 12 -16 0 -8 4 -13 8 -10 4 2 14 1 22 -5 11 -6 11 -9 2 -9
-10 0 -10 -3 0 -14 7 -8 16 -12 21 -9 4 2 7 1 6 -4 -3 -18 3 -47 8 -36 3 10 8
10 19 -1 8 -8 14 -20 14 -26 0 -6 5 -8 10 -5 6 4 10 3 9 -2 -4 -22 2 -43 11
-38 5 3 11 1 11 -4 4 -33 27 -81 39 -81 6 0 8 -5 4 -12 -5 -8 -2 -9 10 -5 10
4 15 3 11 -3 -3 -5 6 -15 20 -22 15 -7 24 -17 21 -25 -3 -8 -2 -12 2 -10 9 6
33 -19 25 -27 -4 -3 -1 -6 5 -6 6 0 20 -19 31 -42 11 -24 20 -37 21 -29 0 10
6 7 19 -7 10 -12 23 -22 30 -22 6 0 11 -6 11 -13 0 -8 10 -22 23 -33 l22 -19
-20 25 -20 25 22 -19 c12 -10 22 -21 21 -25 -3 -14 15 -41 28 -41 8 0 15 -4
15 -10 1 -5 2 -14 3 -19 0 -5 5 -13 10 -18 5 -5 6 -2 2 7 -5 9 -2 8 7 -2 8
-10 20 -18 27 -18 7 0 10 -7 7 -15 -4 -8 -1 -17 5 -21 7 -5 8 -2 3 6 -5 9 -4
11 3 6 7 -4 12 -15 12 -24 0 -15 2 -15 10 -2 8 13 10 12 10 -2 0 -10 5 -18 10
-18 6 0 10 -8 10 -17 0 -15 2 -16 10 -3 8 13 10 12 10 -3 0 -11 9 -21 21 -24
11 -3 18 -11 15 -19 -3 -7 0 -16 6 -20 7 -5 8 -2 3 6 -5 9 -4 11 3 6 7 -4 12
-15 12 -24 0 -15 2 -15 10 -2 8 13 10 12 10 -3 0 -11 9 -21 20 -24 11 -3 20
-10 20 -15 0 -5 -5 -6 -12 -2 -7 4 -8 3 -4 -5 4 -6 12 -9 17 -6 5 4 9 1 9 -4
0 -6 7 -11 16 -11 10 0 14 -6 11 -15 -4 -8 -1 -17 5 -21 7 -5 8 -2 3 6 -5 9
-4 11 3 6 7 -4 12 -15 12 -24 0 -15 2 -15 10 -2 8 13 10 12 10 -3 0 -10 10
-22 22 -27 13 -5 20 -9 16 -9 -5 -1 0 -9 10 -19 9 -11 21 -17 26 -14 5 3 6 0
2 -6 -3 -6 14 -31 39 -56 25 -25 45 -49 45 -54 0 -5 10 -17 23 -28 l22 -19
-20 24 -20 25 26 -20 c15 -10 24 -25 22 -31 -3 -7 2 -13 10 -13 8 0 17 -4 19
-9 2 -5 12 -11 23 -13 11 -1 26 -10 33 -18 12 -13 13 -13 7 0 -6 13 -5 13 7 0
23 -27 77 -32 96 -10 12 13 13 13 8 -4 -6 -17 -5 -17 10 -5 21 17 15 17 45 -3
25 -16 28 -15 58 3 38 23 53 17 47 -17 -3 -13 1 -30 8 -36 14 -14 16 -20 16
-43 0 -8 11 -17 25 -21 13 -3 30 -13 37 -22 12 -16 11 -16 -7 -2 -19 14 -19
14 -6 -2 7 -10 20 -18 27 -18 8 0 11 -6 8 -15 -4 -8 -1 -15 6 -15 7 0 10 -7 7
-14 -4 -10 -1 -13 9 -9 9 3 14 0 12 -8 -2 -8 3 -13 10 -11 6 1 12 -3 12 -9 0
-5 14 -15 30 -20 17 -6 30 -14 30 -18 0 -4 10 -7 23 -6 12 1 27 -2 33 -7 7 -5
18 -7 25 -6 8 2 13 -5 12 -16 -1 -13 2 -15 10 -7 7 7 18 2 38 -18 15 -16 30
-27 33 -23 3 3 6 0 6 -6 0 -10 29 -24 41 -19 4 1 17 -7 30 -18 14 -13 20 -15
15 -5 -4 8 1 5 10 -8 11 -15 27 -22 48 -22 20 0 37 -7 46 -20 8 -11 21 -20 29
-20 8 0 11 -3 8 -7 -4 -3 6 -12 20 -20 19 -10 29 -11 31 -3 3 8 8 7 18 -1 8
-7 25 -13 38 -13 13 -1 31 -8 39 -15 9 -7 21 -10 27 -6 5 3 10 1 10 -5 0 -7 7
-10 15 -6 8 3 15 0 15 -6 0 -6 3 -8 6 -5 4 3 16 1 28 -5 11 -7 26 -12 31 -13
22 -1 55 -17 55 -26 0 -6 4 -7 10 -4 5 3 10 2 10 -3 0 -5 12 -8 28 -7 15 1 29
-1 32 -4 3 -3 14 -11 25 -17 11 -6 20 -16 20 -22 0 -15 13 -25 37 -29 12 -2
27 -8 34 -14 8 -7 14 -7 19 1 5 8 10 8 20 0 10 -8 15 -8 20 0 5 8 11 7 23 -2
12 -10 14 -10 8 0 -5 8 0 12 13 12 13 0 21 -7 21 -16 0 -13 3 -14 14 -5 11 9
15 9 19 -1 4 -10 6 -10 6 0 1 6 13 12 27 12 14 0 23 -4 20 -8 -3 -5 7 -8 22
-7 28 2 72 -13 72 -25 0 -10 64 -4 88 9 34 18 51 14 47 -14 -1 -14 1 -25 4
-26 3 0 56 -2 116 -3 127 -3 167 -11 191 -37 14 -15 31 -19 86 -19 37 0 68 -3
68 -8 0 -4 35 -7 78 -6 42 0 83 -4 91 -10 12 -9 13 -8 6 4 -8 13 -7 13 9 1 14
-12 19 -12 26 -2 5 9 9 10 14 2 5 -8 12 -6 23 4 9 10 19 12 27 7 12 -11 52
-10 62 1 4 4 36 7 71 7 35 0 63 4 63 8 0 4 37 7 83 6 45 0 87 2 92 5 6 3 33 6
61 7 28 1 56 4 63 8 6 4 11 3 11 -2 0 -9 47 -8 57 2 3 2 15 1 27 -4 13 -4 29
-4 39 1 9 6 17 6 17 2 0 -9 60 -10 75 -1 6 3 18 4 28 3 9 -2 17 0 17 4 0 3 24
7 53 8 51 1 76 5 127 19 14 3 33 7 43 7 9 1 17 5 17 9 0 4 11 8 25 8 16 0 25
6 25 16 0 8 5 12 10 9 6 -3 10 -3 10 2 0 7 48 14 118 17 12 1 22 3 22 6 0 3
16 5 35 4 19 -1 35 1 35 5 0 3 17 7 38 9 57 3 73 7 83 23 7 12 9 12 9 -1 0
-11 2 -12 8 -3 4 7 18 11 30 8 12 -2 24 0 27 6 4 5 17 9 30 9 13 0 26 3 29 8
7 12 79 7 105 -7 19 -11 22 -11 15 1 -4 7 2 4 14 -6 12 -11 22 -15 22 -9 0 5
21 10 47 12 25 1 55 7 65 12 11 6 26 8 34 5 8 -3 13 0 11 7 -1 7 4 11 11 9 6
-1 12 4 12 10 0 9 4 8 10 -2 5 -8 10 -10 10 -4 0 11 51 10 71 -1 8 -6 10 -4 4
5 -6 10 -4 11 6 4 18 -11 39 -14 38 -6 -3 20 2 32 11 27 6 -3 10 -1 10 4 0 6
3 10 8 10 4 -1 9 0 12 1 18 7 50 12 82 13 21 1 38 5 38 10 0 4 3 6 8 6 19 -3
33 2 28 10 -4 5 3 7 14 4 11 -3 20 -1 20 5 0 6 11 9 25 7 14 -1 25 1 25 4 0 4
15 6 33 6 17 -1 35 3 39 9 8 12 29 16 107 18 52 2 65 5 69 20 2 10 8 18 13 18
5 0 9 9 9 19 0 11 7 26 15 34 8 8 12 17 10 19 -3 3 10 4 29 3 19 0 32 3 30 7
-3 4 8 8 25 8 16 0 33 5 36 10 4 6 11 8 16 5 5 -3 22 7 38 24 16 16 32 27 37
23 4 -4 5 0 2 9 -4 9 0 16 8 17 8 1 21 3 29 4 10 1 12 5 4 14 -7 9 -2 11 26 7
19 -2 35 0 35 5 0 5 11 8 25 7 14 -2 25 1 25 6 0 5 8 9 18 9 10 0 27 8 38 18
11 9 26 18 34 20 8 2 23 11 33 19 9 9 20 13 24 10 3 -4 1 -7 -5 -7 -7 0 -12
-6 -12 -12 0 -7 12 1 28 17 15 16 26 34 24 39 -2 5 5 3 14 -5 12 -9 15 -9 10
-1 -4 7 -1 12 9 12 9 0 13 5 10 10 -6 9 8 14 28 11 4 0 7 7 7 16 0 15 2 16 10
3 9 -13 14 -7 11 13 0 4 6 7 14 7 9 0 25 8 36 19 12 11 29 17 40 14 10 -3 26
0 34 7 8 6 19 9 25 5 5 -3 10 -1 10 5 0 6 4 9 9 5 5 -3 12 -1 16 5 3 5 15 10
27 10 16 0 18 3 9 13 -8 10 -7 17 2 27 10 10 9 11 -2 5 -9 -5 -7 2 5 17 10 14
22 24 27 21 4 -2 7 1 7 7 0 6 5 8 10 5 6 -4 9 -3 8 2 -5 19 13 93 22 88 6 -3
10 1 10 10 0 8 7 18 15 21 8 4 15 10 15 16 0 5 -5 6 -10 3 -5 -3 -10 -4 -10
-1 0 10 58 35 65 28 5 -4 6 0 3 8 -4 12 4 15 41 17 61 2 109 9 148 21 17 6 34
7 38 4 3 -4 3 1 -1 11 -4 11 0 19 9 23 9 3 13 12 11 19 -3 8 2 12 13 12 10 -1
17 3 16 10 -2 7 4 10 12 7 10 -4 15 0 15 12 0 14 2 16 9 6 7 -11 9 -10 15 3 3
9 10 13 16 10 5 -3 10 1 10 9 0 9 7 13 19 11 15 -3 18 1 13 17 -3 14 -1 19 6
14 7 -4 12 -1 12 9 0 9 9 19 21 22 16 4 17 8 7 14 -10 7 -9 9 5 9 9 0 17 7 17
16 0 8 4 13 9 10 5 -3 12 1 15 10 4 9 9 14 12 11 8 -7 34 18 34 32 0 6 7 8 15
5 8 -4 15 -1 15 5 0 6 7 11 16 11 8 0 12 5 9 10 -6 9 7 14 21 8 3 -2 12 9 20
24 10 19 19 25 31 21 11 -4 14 -3 9 5 -5 8 0 12 14 12 12 0 18 5 15 10 -3 6
-1 10 4 10 6 0 11 8 11 18 0 14 2 15 10 2 8 -13 10 -12 10 4 0 11 3 17 6 13
10 -10 36 22 28 34 -4 8 -3 9 4 5 7 -4 27 8 47 29 20 19 42 35 49 35 8 0 17 7
20 16 3 9 12 14 18 12 16 -6 44 21 52 50 4 12 12 22 17 22 5 0 9 9 9 20 0 12
7 20 18 20 14 0 15 2 2 10 -8 5 -11 10 -5 10 5 0 4 5 -3 12 -9 9 -5 17 16 36
15 13 20 21 12 16 -12 -6 -13 -5 -3 7 16 20 17 31 1 40 -11 7 -10 11 2 19 8 5
11 10 6 10 -6 0 -1 6 9 14 11 8 23 12 28 9 4 -2 6 1 5 8 -2 7 3 14 10 15 6 1
15 3 20 4 4 1 11 2 15 1 4 -1 10 6 13 14 3 8 10 12 15 9 5 -3 9 0 9 6 0 6 4 9
9 6 5 -3 12 2 15 11 6 15 8 15 16 3 7 -10 10 -11 10 -2 0 6 7 12 15 12 8 0 15
4 15 8 0 5 14 7 30 6 21 -1 30 3 30 13 0 8 5 11 11 8 5 -4 20 1 31 12 14 12
19 13 13 3 -4 -8 1 -6 12 5 11 11 19 23 16 27 -6 12 23 49 31 41 4 -4 4 0 0
10 -4 11 -1 17 7 17 11 0 11 3 -1 10 -12 7 -12 10 -1 10 8 0 11 6 7 15 -3 9 1
18 9 21 8 4 12 10 9 15 -3 5 -1 9 3 9 11 0 34 60 27 71 -3 5 0 9 6 9 6 0 9 4
5 9 -3 5 -1 12 5 16 6 4 8 11 5 16 -3 5 1 6 10 3 9 -4 15 -3 14 2 -4 16 13 64
22 64 5 0 8 3 8 8 -4 21 2 32 13 26 8 -5 9 -2 5 9 -3 10 -2 17 4 17 6 0 7 5 4
10 -3 6 -1 10 5 10 6 0 10 8 9 18 -2 28 1 46 7 39 7 -7 44 24 44 38 0 5 -5 3
-10 -5 -5 -8 -10 -11 -10 -6 0 6 10 20 22 33 15 16 17 23 8 23 -11 0 -11 3 -2
12 7 7 12 20 12 30 0 10 4 18 9 18 6 0 10 8 10 18 1 40 5 51 19 57 8 3 11 12
8 20 -3 9 1 18 9 21 8 4 13 10 10 14 -3 4 1 13 8 19 7 5 12 24 11 41 -2 23 2
30 12 26 7 -3 13 -2 12 2 -1 4 5 30 15 57 9 28 19 61 21 75 3 14 5 25 6 25 1
0 3 20 5 44 1 24 8 47 15 51 6 4 11 10 10 14 -1 4 1 17 5 29 4 12 6 27 5 32
-1 6 1 7 5 3 13 -12 34 16 23 30 -7 8 -7 12 1 12 7 0 9 5 6 10 -3 6 -1 10 5
10 6 0 8 5 5 10 -3 6 1 13 9 16 9 3 16 12 16 19 0 7 7 18 15 25 8 7 14 20 13
29 -2 9 2 15 7 14 6 -1 11 6 12 15 3 35 10 54 22 62 8 4 11 12 8 16 -7 12 19
35 28 26 4 -4 5 3 1 14 -5 15 -2 24 9 28 9 3 13 11 10 16 -4 6 -1 9 7 8 7 -2
12 3 10 10 -1 6 2 12 8 12 5 0 10 7 10 15 0 8 4 15 9 15 5 0 12 13 16 29 3 16
13 35 21 41 7 7 12 16 9 20 -3 4 2 11 11 14 10 4 14 14 11 26 -3 13 -1 18 6
13 6 -4 8 0 4 10 -3 9 -2 19 4 22 5 4 6 11 3 17 -5 7 -2 9 8 5 12 -4 14 -1 11
14 -3 12 0 19 8 19 12 0 12 2 0 9 -9 6 -10 11 -2 15 6 4 11 12 11 17 0 6 -4 7
-10 4 -6 -3 -7 1 -4 9 3 9 9 16 13 16 10 0 8 93 -1 100 -4 3 -9 26 -12 50 -2
25 -6 52 -7 60 -5 33 2 60 14 60 8 0 14 6 15 13 7 62 8 97 3 97 -4 0 -7 27 -7
60 1 43 4 59 13 56 7 -3 10 3 8 15 -2 10 1 19 7 19 7 0 6 6 -2 15 -7 8 -8 15
-3 15 5 0 9 12 9 28 -1 18 4 26 13 24 8 -2 11 3 8 13 -4 8 -2 15 3 15 5 0 7
14 3 32 -3 18 -2 29 3 26 5 -4 9 17 9 45 0 32 4 51 11 50 11 -2 13 5 17 51 1
13 6 22 11 18 5 -3 7 2 3 10 -3 9 0 21 6 27 6 6 7 11 3 11 -5 0 -3 7 4 15 10
12 10 15 -1 15 -11 1 -11 3 1 13 8 7 17 19 20 27 10 31 9 440 -1 440 -6 0 -7
5 -4 10 3 6 2 10 -2 10 -5 0 -10 19 -12 42 -1 23 -7 46 -14 50 -9 6 -8 8 3 8
11 0 9 4 -5 12 -11 6 -24 17 -28 25 -5 7 -12 11 -18 8 -5 -4 -9 -1 -9 4 0 6
-7 11 -15 11 -8 0 -15 -5 -15 -11 0 -5 -4 -7 -10 -4 -5 3 -10 0 -10 -7 0 -17
-36 -48 -46 -40 -4 4 -4 -1 -1 -10 3 -10 1 -20 -5 -24 -7 -5 -8 -2 -3 7 8 12
6 12 -8 0 -9 -7 -14 -17 -11 -22 3 -5 -2 -9 -11 -9 -9 0 -13 -4 -10 -10 3 -5
1 -10 -4 -10 -6 0 -11 -3 -10 -7 2 -16 -14 -53 -23 -53 -5 0 -6 6 -2 13 5 7 0
6 -11 -3 -10 -8 -21 -15 -24 -15 -3 0 -5 -6 -4 -13 0 -7 -1 -11 -4 -8 -3 3
-12 -2 -20 -10 -13 -13 -18 -13 -37 -1 -11 8 -39 14 -60 15 -46 2 -53 7 -36
27 10 12 10 15 0 15 -10 0 -10 3 -1 14 10 12 7 15 -21 18 -26 2 -32 7 -30 22
3 14 -1 17 -13 12 -10 -4 -14 -2 -9 6 5 8 -2 9 -24 5 -33 -7 -37 -1 -33 45 1
10 -3 18 -8 18 -6 0 -11 6 -11 14 0 8 -7 17 -16 20 -8 3 -12 10 -9 16 3 5 -1
10 -9 10 -9 0 -16 4 -16 8 0 4 -10 8 -21 9 -27 2 -28 4 -31 36 -1 15 -5 27 -8
27 -3 0 -6 9 -7 21 -1 11 -13 35 -27 54 -14 18 -22 36 -18 40 4 3 3 6 -3 4
-14 -3 -46 12 -41 20 3 4 -4 7 -15 7 -10 0 -19 -4 -19 -8 0 -5 -12 -5 -27 -2
-15 4 -33 7 -40 7 -7 0 -13 4 -13 8 0 5 -6 6 -14 3 -8 -3 -24 6 -37 20 -12 14
-26 23 -30 20 -20 -12 -54 -13 -61 -1 -6 9 -8 9 -8 -1 0 -10 -3 -10 -15 2 -8
8 -15 20 -15 26 0 6 -4 9 -8 6 -5 -3 -15 4 -22 15 -8 10 -20 19 -27 19 -7 0
-13 5 -13 11 0 8 -6 7 -17 -2 -11 -10 -14 -10 -9 -1 4 7 1 12 -8 12 -9 0 -16
5 -16 11 0 5 -4 7 -10 4 -5 -3 -10 1 -10 9 0 9 -6 16 -13 16 -7 0 -14 13 -15
30 -1 17 2 30 8 30 11 0 1 30 -16 47 -10 10 -13 10 -17 0 -3 -6 -6 -1 -6 13
-1 15 -4 20 -9 13 -5 -8 -12 -7 -27 4 -20 16 -20 16 0 9 16 -6 18 -5 8 5 -7 7
-13 24 -13 37 0 21 -2 22 -15 12 -8 -7 -15 -9 -15 -4 0 5 -5 1 -11 -9 -6 -9
-14 -15 -20 -12 -5 4 -13 -4 -18 -17 -6 -13 -10 -17 -10 -10 -1 6 -10 12 -20
12 -11 0 -27 9 -35 21 -8 12 -19 18 -25 14 -6 -3 -11 -1 -11 5 0 13 -30 45
-31 33 0 -4 -4 1 -8 12 -8 19 -9 18 -21 -7 -8 -18 -19 -25 -31 -23 -11 2 -19
1 -19 -4 0 -10 -114 -10 -121 1 -5 8 -47 20 -76 21 -7 0 -13 9 -13 19 0 10 -6
19 -12 19 -24 2 -43 -3 -49 -13 -4 -6 -9 -6 -14 2 -6 9 -10 9 -16 -1 -7 -11
-9 -11 -9 1 0 9 -9 16 -20 17 -11 1 -18 -1 -16 -5 3 -4 -4 -8 -15 -8 -10 0
-19 4 -19 8 0 4 -7 5 -15 2 -8 -4 -15 -1 -15 6 0 6 -3 9 -7 7 -5 -3 -14 1 -21
9 -7 8 -9 14 -5 14 4 1 -3 9 -16 20 -12 11 -27 18 -31 15 -14 -9 -22 15 -11
29 13 16 11 37 -4 48 -15 11 -27 9 -19 -3 4 -8 0 -8 -15 0 -11 7 -21 14 -21
17 0 3 5 2 12 -2 6 -4 3 4 -7 18 -18 24 -28 28 -67 29 -10 0 -18 6 -18 12 0 7
-4 6 -10 -3 -8 -13 -10 -13 -10 -1 0 11 -4 10 -16 -5 -8 -10 -13 -13 -9 -6 3
6 1 12 -4 12 -6 0 -11 -5 -11 -11 0 -7 -10 -9 -26 -5 -19 5 -24 4 -18 -6 6
-10 3 -9 -9 1 -20 16 -23 25 -4 15 8 -5 9 -4 2 4 -5 6 -16 12 -24 14 -18 4
-61 43 -61 55 0 6 -7 16 -15 23 -8 7 -15 18 -14 24 2 19 -13 56 -23 56 -18 0
-69 63 -64 77 3 8 1 11 -4 8 -6 -3 -10 2 -10 11 0 10 -3 14 -7 11 -7 -8 -32
23 -33 40 0 8 11 11 28 9 33 -3 50 12 45 39 -2 11 -5 26 -5 33 -1 6 -6 12 -11
12 -6 0 -7 3 -4 6 4 4 -2 15 -14 25 -14 12 -16 18 -7 22 9 4 7 6 -4 6 -9 1
-18 5 -20 10 -1 5 -12 11 -23 13 -11 1 -30 13 -42 26 -24 24 -30 38 -13 27 6
-3 10 0 10 7 -1 16 -24 48 -35 48 -4 0 -1 -8 6 -17 12 -15 12 -16 -5 -10 -14
6 -17 4 -12 -9 5 -14 4 -15 -9 -4 -11 9 -15 9 -15 1 0 -7 -5 -9 -10 -6 -6 3
-17 -1 -26 -9 -18 -19 -38 -21 -28 -3 5 8 2 8 -9 -2 -10 -8 -17 -9 -17 -3 0 6
-10 14 -21 17 -12 4 -17 10 -12 14 7 4 7 15 2 29 -5 13 -13 20 -19 17 -5 -3
-10 -1 -10 5 0 6 -4 8 -10 5 -5 -3 -10 2 -10 12 0 14 -2 15 -9 5 -7 -11 -11
-11 -23 2 -9 8 -18 12 -21 9 -4 -3 -5 4 -2 15 2 13 -3 26 -13 32 -14 8 -14 10
-2 10 12 0 11 3 -3 11 -9 6 -15 14 -12 20 4 5 -2 6 -11 2 -10 -4 -15 -2 -11 4
3 5 -3 9 -16 8 -25 -2 -58 15 -51 27 3 4 1 8 -5 8 -5 0 -8 8 -7 18 2 9 -5 23
-16 30 -10 7 -15 18 -12 24 4 7 2 8 -4 4 -6 -3 -16 3 -22 15 -7 12 -8 19 -2
15 5 -3 2 10 -7 28 -9 19 -19 32 -23 29 -5 -2 -8 1 -8 6 0 6 -11 11 -25 11
-20 0 -25 5 -25 24 0 32 -10 57 -20 51 -5 -3 -19 -1 -32 4 -14 5 -31 5 -39 0
-17 -9 -66 0 -51 10 6 3 0 11 -14 18 -18 8 -22 8 -17 0 5 -9 3 -9 -8 0 -9 8
-20 9 -29 3 -8 -6 -58 -10 -110 -10 -102 0 -121 -7 -168 -59 -32 -38 -45 -86
-39 -149 10 -97 66 -143 292 -238 61 -25 124 -52 140 -60 17 -7 68 -29 115
-48 76 -31 153 -68 214 -103 47 -27 143 -112 178 -158 113 -147 142 -335 82
-518 -17 -52 -60 -133 -75 -142 -21 -13 -7 -25 30 -25 22 0 41 -5 43 -12 2 -7
4 -101 4 -208 l-1 -195 -140 -2 c-77 -1 -161 -2 -187 -2 l-48 -1 0 -695 c0
-549 3 -695 13 -696 6 0 89 -1 184 -1 116 -1 173 -5 175 -12 2 -6 4 -99 3
-206 l0 -195 -540 -2 c-297 -1 -554 -2 -571 -2 l-30 -1 1 -138 c1 -182 2 -177
-45 -147 -58 37 -230 121 -280 138 -25 8 -83 21 -129 27 -203 30 -402 -33
-455 -144 -40 -85 -14 -196 56 -243 53 -35 182 -96 333 -158 77 -31 173 -72
213 -91 40 -19 75 -34 78 -34 2 0 35 -20 72 -44 129 -86 202 -171 249 -293 21
-56 27 -87 29 -178 2 -97 -1 -119 -25 -190 -59 -175 -170 -293 -366 -390 -140
-68 -257 -96 -416 -100 -191 -4 -342 29 -525 114 -44 21 -106 54 -137 74 l-57
37 0 225 c0 124 2 225 4 225 2 0 46 -26 97 -58 248 -154 487 -213 706 -176 71
12 153 50 181 83 28 34 50 95 47 131 -5 58 -30 96 -95 140 -70 48 -91 57 -358
161 -266 104 -322 133 -412 211 -70 63 -126 163 -156 283 -4 17 -9 37 -11 45
-2 8 -5 58 -7 110 -3 107 13 197 50 279 13 29 24 54 24 55 0 1 -37 2 -82 3
-73 0 -185 8 -220 15 -8 2 -13 -14 -14 -47 -1 -27 -2 -53 -3 -56 -1 -3 -156
-6 -346 -6 -190 0 -349 -3 -353 -7 -4 -4 -8 -400 -9 -879 0 -480 -2 -881 -2
-893 -1 -20 -5 -21 -208 -22 -115 0 -217 1 -228 3 -20 4 -20 11 -20 895 0 546
-3 894 -9 898 -5 3 -164 5 -353 5 -376 0 -345 -5 -346 60 0 15 -3 27 -6 28 -3
1 -20 2 -37 4 -221 19 -386 69 -548 168 -104 63 -143 94 -221 172 -77 78 -98
103 -150 184 -146 227 -203 488 -172 790 25 246 154 507 332 676 l47 44 -26 7
-26 6 0 1074 c0 591 2 1074 4 1074 2 0 25 4 52 9 27 5 69 12 94 16 25 3 52 8
60 10 8 2 44 7 80 11 36 3 79 8 95 10 179 20 549 26 650 12 313 -45 543 -204
632 -435 33 -86 40 -228 17 -318 -32 -124 -128 -257 -238 -331 -42 -28 -47
-34 -30 -40 249 -85 375 -249 377 -489 1 -117 -23 -209 -79 -305 -39 -67 -129
-162 -198 -209 -24 -17 -45 -36 -47 -43 -2 -7 -4 -111 -4 -230 1 -201 -3 -236
-20 -208 -4 6 -25 23 -48 37 -23 14 -44 29 -47 33 -3 3 -32 22 -65 42 -131 79
-278 120 -425 119 -47 -1 -95 -3 -106 -5 -12 -2 -38 -7 -59 -10 -91 -15 -248
-98 -330 -174 -302 -281 -308 -771 -13 -1060 62 -61 91 -82 168 -121 116 -59
192 -76 350 -75 104 0 147 3 219 18 95 20 246 92 342 163 33 24 61 43 64 43 3
0 5 -76 5 -170 0 -169 0 -170 23 -171 29 -1 575 -1 604 0 22 1 21 3 -13 48
-75 98 -132 240 -153 384 -8 52 -12 304 -12 790 0 393 0 719 0 724 1 6 63 10
168 9 l168 0 5 65 5 66 175 2 c96 1 180 2 186 3 11 0 15 1389 4 1391 -3 0 -87
1 -187 1 l-183 1 0 207 0 207 605 0 c428 0 605 -3 606 -11 1 -15 1 -356 0
-382 -1 -20 -6 -21 -182 -22 -99 0 -183 -3 -185 -5 -7 -6 -7 -1377 -1 -1383 3
-3 86 -5 186 -5 l181 -1 1 -26 c1 -15 2 -45 3 -67 l1 -40 170 -1 c94 -1 176
-2 183 -3 10 -1 12 -149 11 -728 0 -401 -4 -750 -9 -778 -16 -93 -19 -107 -41
-173 -22 -66 -64 -152 -101 -204 l-19 -28 63 -2 c35 0 68 -2 73 -3 18 -2 125
-16 132 -17 18 -1 210 -71 247 -90 24 -12 41 -16 45 -10 3 6 6 58 5 115 l-1
105 188 -2 187 -1 0 698 0 697 -81 1 c-45 0 -130 1 -189 1 l-106 0 2 80 c1 44
-3 85 -9 92 -5 7 -38 24 -72 39 -34 14 -94 46 -135 70 l-73 45 -1 226 c0 124
0 226 1 226 1 0 43 -25 93 -55 220 -133 389 -186 592 -188 97 0 117 2 185 23
160 48 217 212 109 312 -42 38 -143 90 -274 141 -63 25 -158 62 -210 82 -244
95 -363 181 -428 310 -21 41 -57 157 -67 210 -7 42 -7 182 0 228 24 145 110
282 244 391 28 22 32 29 20 37 -8 5 -9 9 -4 9 6 0 11 9 12 20 1 14 -4 20 -18
20 -13 0 -18 4 -13 12 5 7 2 9 -8 5 -17 -6 -20 23 -4 35 13 9 16 67 5 74 -5 3
-6 10 -3 16 4 7 2 8 -4 4 -7 -4 -12 -4 -13 1 0 4 -2 16 -5 26 -2 9 -5 24 -7
32 -2 8 -7 18 -12 22 -4 4 -5 2 0 -6 5 -9 4 -12 -3 -7 -6 3 -10 32 -10 63 1
49 5 60 31 84 18 18 24 29 16 29 -9 0 -10 3 -3 8 6 4 14 17 18 29 4 12 16 25
27 28 10 4 17 11 14 16 -4 5 -2 9 3 9 5 0 8 12 7 28 -1 15 1 32 4 37 10 17 10
35 0 35 -6 0 -7 5 -4 10 3 6 -3 10 -14 10 -11 0 -22 4 -25 9 -5 7 -41 8 -41 1
0 -7 -36 -6 -40 0 -3 5 -13 6 -21 3 -12 -5 -15 1 -14 23 3 47 1 64 -11 64 -5
0 -7 -6 -3 -12 5 -9 2 -9 -9 1 -11 9 -17 10 -17 2 0 -6 -5 -11 -10 -11 -13 0
-4 54 10 58 5 2 10 8 10 13 0 6 -4 8 -9 5 -5 -4 -7 4 -3 16 3 14 1 19 -6 14
-8 -4 -10 5 -9 31 2 23 7 37 14 36 7 -2 10 4 6 13 -4 11 0 15 13 12 14 -2 19
3 19 22 0 19 -5 25 -22 24 -12 0 -20 3 -17 7 6 10 -45 26 -90 28 -11 1 -16 4
-13 8 4 3 1 13 -6 21 -10 13 -9 14 3 7 12 -6 13 -5 3 6 -7 7 -13 21 -13 30 0
12 -6 17 -17 15 -10 -2 -24 2 -31 10 -8 9 -9 14 -2 14 6 0 4 7 -5 16 -9 9 -14
23 -11 30 3 8 2 14 -2 14 -4 0 -7 14 -7 30 0 17 3 30 7 30 3 0 0 20 -8 45 -11
39 -11 45 1 45 8 0 15 5 15 10 0 6 7 10 16 10 18 0 46 25 37 34 -4 3 -1 6 4 6
14 0 11 26 -5 42 -6 6 -22 13 -34 16 -39 6 -42 7 -63 20 -11 6 -15 12 -9 12 5
0 14 -3 20 -7 5 -5 1 0 -9 9 -11 10 -20 29 -21 42 0 13 -3 23 -6 21 -4 -2 -12
5 -19 17 -10 16 -10 19 1 12 10 -6 10 -4 -1 9 -7 9 -17 14 -22 11 -5 -3 -9 4
-9 15 0 12 -4 21 -10 21 -5 0 -10 7 -10 16 0 8 -4 13 -8 10 -4 -2 -9 4 -9 15
-1 10 2 19 7 19 6 0 6 10 0 25 -10 27 -6 32 35 38 11 1 26 6 33 10 6 5 17 5
24 1 7 -5 8 -3 3 5 -9 15 36 11 47 -4 5 -6 8 -5 8 2 0 7 7 10 17 6 11 -4 14
-3 9 5 -4 7 -1 12 9 12 9 0 13 5 10 10 -3 6 -1 10 4 10 6 0 11 5 11 11 0 5 -6
7 -12 3 -8 -5 -8 -1 2 12 8 10 11 16 6 12 -10 -9 -36 15 -36 34 0 10 -3 9 -10
-2 -6 -10 -10 -11 -10 -2 0 7 -15 12 -41 12 -24 0 -38 4 -34 10 3 6 2 10 -4
10 -6 0 -8 6 -5 13 3 8 -2 14 -11 14 -8 0 -15 -4 -15 -9 0 -4 -7 -8 -15 -8 -8
0 -15 6 -15 13 0 9 -2 9 -8 1 -5 -9 -10 -9 -19 1 -7 7 -8 17 -2 26 5 8 9 10
10 4 0 -5 4 -1 9 10 11 26 12 115 2 115 -5 0 -9 6 -9 14 0 8 5 14 11 13 6 -1
10 4 9 11 -2 6 1 12 6 12 6 0 8 9 6 20 -2 11 7 33 20 48 19 23 22 32 12 42 -9
10 -9 11 1 6 6 -4 12 -2 12 3 0 6 -7 11 -16 11 -10 0 -14 6 -11 14 4 9 0 13
-11 11 -9 -1 -19 1 -22 5 -3 5 -14 10 -25 12 -10 1 -27 11 -37 21 -10 9 -25
17 -34 17 -9 0 -12 5 -8 12 5 7 2 9 -8 5 -9 -3 -21 0 -27 6 -6 6 -11 7 -11 1
0 -5 -4 -4 -8 3 -4 6 -14 13 -22 15 -21 5 -39 22 -32 32 3 5 0 6 -6 2 -6 -3
-13 -2 -16 3 -3 5 -20 8 -38 7 -20 -1 -41 5 -52 16 -15 13 -23 15 -39 7 -15
-9 -18 -8 -12 2 6 9 3 11 -8 6 -9 -3 -19 -1 -23 5 -5 7 -2 8 7 4 9 -5 8 -3 -2
6 -8 7 -18 20 -21 29 -4 9 -18 19 -32 21 -14 3 -23 2 -21 -3 3 -4 1 -10 -4
-13 -10 -7 -21 16 -21 44 0 20 -27 40 -55 40 -10 0 -13 -5 -9 -12 5 -8 2 -9
-9 -5 -10 4 -16 2 -14 -5 2 -10 -39 -15 -60 -7 -5 1 -12 3 -18 4 -5 2 -13 4
-17 5 -19 6 -33 5 -39 -3 -3 -4 -14 -7 -25 -7 -53 3 -100 3 -113 -1 -10 -3
-14 6 -15 31 -1 33 -3 35 -36 34 -19 -1 -48 -4 -64 -7 -24 -5 -27 -3 -23 13 4
17 -6 25 -25 19 -2 0 -16 5 -33 11 -52 20 -205 33 -205 17z m1451 -1264 c13
-16 12 -17 -3 -4 -10 7 -18 15 -18 17 0 8 8 3 21 -13z m-3927 -8729 c3 -8 2
-12 -4 -9 -6 3 -10 10 -10 16 0 14 7 11 14 -7z"/>
<path d="M3145 7819 c-83 -9 -148 -20 -158 -26 -13 -8 -7 -533 6 -534 40 -3
476 1 492 5 102 22 148 46 202 104 84 90 98 234 31 322 -32 41 -106 88 -177
112 -54 18 -90 22 -201 23 -74 1 -162 -2 -195 -6z"/>
<path d="M2985 6911 c-3 -2 -5 -121 -5 -263 0 -280 -3 -265 56 -273 16 -2 29
-4 29 -5 0 -6 85 -11 245 -15 235 -7 322 12 428 93 73 55 111 179 82 266 -27
82 -130 153 -270 187 -52 12 -554 21 -565 10z"/>
<path d="M9295 6370 c3 -5 8 -10 11 -10 2 0 4 5 4 10 0 6 -5 10 -11 10 -5 0
-7 -4 -4 -10z"/>
<path d="M5003 5972 l-73 -3 0 -558 c0 -578 3 -631 43 -726 20 -49 73 -123
112 -158 29 -26 124 -73 175 -88 59 -16 220 -20 290 -8 202 37 345 183 375
383 7 49 8 1146 1 1153 -5 6 -800 10 -923 5z"/>
</g>
</svg>
